<?xml version="1.0" encoding="utf-8" ?>
<svg baseProfile="full" height="300mm" version="1.1" viewBox="0,0,200,300" width="200mm" xmlns="http://www.w3.org/2000/svg" xmlns:ev="http://www.w3.org/2001/xml-events" xmlns:xlink="http://www.w3.org/1999/xlink"><defs /><rect fill="#222222" height="300" width="200" x="0" y="0" /><text fill="#FFFFFF" style="font-size:12px; font-family:Arial; font-weight:bold;" x="10" y="20">Over 4km Runs</text><text fill="#FFFFFF" style="font-size:4px; font-family:Arial" x="10" y="280">ATHLETE</text><text fill="#FFFFFF" style="font-size:9px; font-family:Arial" x="10" y="290">Suzanne Huang</text><text fill="#FFFFFF" style="font-size:4px; font-family:Arial" x="120" y="280">STATISTICS</text><text fill="#FFFFFF" style="font-size:3px; font-family:Arial" x="120" y="285">Number: 4</text><text fill="#FFFFFF" style="font-size:3px; font-family:Arial" x="120" y="290">Weekly: 1.0</text><text fill="#FFFFFF" style="font-size:3px; font-family:Arial" x="141" y="285">Total: 19.9 km</text><text fill="#FFFFFF" style="font-size:3px; font-family:Arial" x="141" y="290">Avg: 5.0 km</text><text fill="#FFFFFF" style="font-size:3px; font-family:Arial" x="167" y="285">Min: 4.3 km</text><text fill="#FFFFFF" style="font-size:3px; font-family:Arial" x="167" y="290">Max: 5.8 km</text><polyline fill="none" points="73.55908896960318,70.09888337925076 73.55908896960318,61.32816689182073 73.55908896960318,57.20076571730897 74.00629593245685,52.557435433380306 69.98143326304853,42.238908669911325 54.776396518573165,36.0477826660499 48.06829207018018,38.11149216396734 42.701808512210846,42.238908669911325 37.782531917095184,53.58928696997464 37.33532495237887,58.232616322580725 36.888117991387844,62.875941476318985 36.44091102667153,69.06703515769914 36.44091102667153,72.1625792006962 35.99370406381786,75.25812137825415 36.44091102667153,82.99696866422892 36.44091102667153,87.1243491191417 36.888117991387844,90.21988228429109 37.782531917095184,97.44278575060889 37.782531917095184,100.02239167084917 38.676945842802525,102.60199629701674 40.46577369607985,107.24528135824949 42.701808512210846,111.37264233687893 47.62108510546386,113.43632158264518 54.329189555719495,114.98408047389239 60.59008703939617,114.46816089516506 66.85098452307284,111.888562226668 71.32305415533483,107.24528135824949 74.45350289717317,96.4109430196695 74.90070986188948,93.83133528521284 75.34791682474315,91.25172625808045 74.45350289717317,83.51289140293375 74.00629593245685,76.80589176900685 74.00629593245685,74.22627419233322 74.00629593245685,69.58295929385349 74.90070986188948,61.84409180609509 74.45350289717317,58.748541546054184 74.45350289717317,56.16891490481794 73.11188200861216,48.43002721527591 70.87584719248116,41.207054855301976 65.06215667165816,36.56371011864394 61.93170792795718,36.0477826660499 55.22360347956419,34.5 44.93784332834184,38.11149216396734 40.91298065893352,42.75483550084755 36.44091102667153,50.493731738999486 35.99370406381786,53.58928696997464 35.09929013811052,58.232616322580725 34.6520831733942,64.93964020069689 35.09929013811052,68.03518672846258 35.09929013811052,71.64665532298386 35.09929013811052,74.74219781160355 35.09929013811052,81.44920013938099 35.546497102826834,84.54473672388121 35.546497102826834,88.67211593547836 35.99370406381786,95.37910008290783 36.44091102667153,98.99054945865646 39.12415280751884,105.6975201391615 43.149015475064516,110.85672239493579 45.83225725404918,112.40448206337169 52.0931547395885,114.46816089516506 58.80125918611884,115.5 65.06215667165816,112.9204018493183 70.42864022776484,109.3089622631669 73.55908896960318,104.14975845022127 74.90070986188948,96.9268644102849 74.90070986188948,93.31541358400136 74.45350289717317,90.73580429609865 74.45350289717317,87.1243491191417 75.34791682474315,79.90143114933744 74.90070986188948,76.80589176900685 74.45350289717317,73.19442679965869 74.45350289717317,70.61480741202831 74.45350289717317,64.42371559655294 74.45350289717317,60.81224192492664 74.45350289717317,58.232616322580725 74.45350289717317,55.652989422902465 73.11188200861216,49.461879581213 72.21746808290482,46.36632186220959 69.08701933920383,40.69112787023187 63.72053577937186,37.59556486736983 61.03729400224984,37.079637518618256 57.9068452604115,36.56371011864394 49.85711992159486,37.59556486736983 47.17387814447284,38.627419407479465 44.043429400771856,40.69112787023187 40.01856673322618,44.302615681663156 38.676945842802525,47.39817464211956 37.782531917095184,49.97780568525195 35.99370406381786,55.652989422902465 35.546497102826834,58.232616322580725 35.546497102826834,61.32816689182073 35.09929013811052,64.93964020069689 35.546497102826834,67.00333809293807 35.09929013811052,74.22627419233322 35.546497102826834,77.83773843524978 35.546497102826834,81.44920013938099 35.546497102826834,84.02881408808753 35.99370406381786,90.73580429609865 35.99370406381786,93.83133528521284 36.44091102667153,96.4109430196695 38.676945842802525,103.63383778324351 40.01856673322618,106.21344059705734 43.149015475064516,109.82488235877827 45.38505029119551,112.40448206337169 49.85711992159486,114.46816089516506 52.0931547395885,114.98408047389239 55.670810444280505,114.98408047389239 61.93170792795718,114.46816089516506 65.95657059550285,112.40448206337169 68.63981237635016,110.85672239493579 71.7702611181885,105.18159962724894 72.66467504575849,98.99054945865646 73.55908896960318,95.37910008290783 74.45350289717317,91.76764816697687 74.90070986188948,89.18803810467944 75.34791682474315,82.48104587569833 74.90070986188948,78.35366169176996 74.90070986188948,75.25812137825415 74.45350289717317,68.55111096939072 74.45350289717317,64.93964020069689 74.45350289717317,62.36001666728407 74.45350289717317,56.684840337373316 74.00629593245685,53.58928696997464 73.55908896960318,51.00965774152428 71.7702611181885,44.81854230398312 67.74539844878018,40.17520083114505 64.16774274408817,38.627419407479465 57.9068452604115,37.079637518618256 50.30432688631117,38.11149216396734 44.043429400771856,40.69112787023187 39.12415280751884,45.85039539495483 35.99370406381786,52.557435433380306 35.09929013811052,59.264466719236225 35.09929013811052,62.36001666728407 35.546497102826834,66.48741369647905 35.546497102826834,74.22627419233322 35.99370406381786,78.35366169176996 35.99370406381786,82.48104587569833 36.44091102667153,89.18803810467944 36.44091102667153,92.79949183063582 36.888117991387844,96.4109430196695 37.33532495237887,98.474628274329 38.229738879948854,103.63383778324351 42.25460154749453,109.82488235877827 46.72667117975652,113.95224126428366 56.565224369987845,115.5 58.80125918611884,114.98408047389239 63.27332881838083,114.46816089516506 65.50936363451183,112.9204018493183 70.42864022776484,108.27712191548198 72.21746808290482,105.18159962724894 74.45350289717317,99.50647059082985 74.90070986188948,95.8950215773657 75.34791682474315,93.31541358400136 75.34791682474315,90.21988228429109 75.34791682474315,84.02881408808753 75.34791682474315,80.4173541967757 74.90070986188948,77.83773843524978 74.45350289717317,73.71035052230582 74.45350289717317,67.51926243631169 74.90070986188948,63.39186623552814 74.90070986188948,60.81224192492664 74.45350289717317,57.20076571730897 74.00629593245685,50.493731738999486 73.55908896960318,47.39817464211956 70.87584719248116,42.238908669911325 65.95657059550285,38.627419407479465 57.9068452604115,37.079637518618256 53.88198259100318,37.59556486736983 51.19874081015587,38.11149216396734 45.83225725404918,40.17520083114505 42.701808512210846,42.238908669911325 37.782531917095184,46.88224827731028 35.99370406381786,49.97780568525195 34.20487621054053,56.684840337373316 34.20487621054053,59.264466719236225 34.20487621054053,64.93964020069689 34.6520831733942,67.51926243631169 35.09929013811052,71.64665532298386 35.546497102826834,74.22627419233322 36.888117991387844,80.93327719531953 36.888117991387844,83.51289140293375 37.33532495237887,87.1243491191417 36.888117991387844,89.70396021893248 37.33532495237887,95.8950215773657 37.33532495237887,98.99054945865646 37.782531917095184,101.57015460217372 40.01856673322618,107.24528135824949 44.490636363625526,111.37264233687893 51.645947774872184,113.95224126428366 56.118017407134175,114.98408047389239 59.24846614897251,114.98408047389239 64.61494970880449,112.9204018493183 68.63981237635016,110.34080240270123 71.7702611181885,106.21344059705734 73.11188200861216,103.11791706643999 74.90070986188948,96.9268644102849 74.45350289717317,94.34725693706423 74.45350289717317,92.2835700251162 74.45350289717317,88.67211593547836 74.45350289717317,86.0925043169409 74.45350289717317,79.38550804881379 74.45350289717317,76.80589176900685 74.45350289717317,74.74219781160355 74.45350289717317,72.1625792006962 74.45350289717317,65.45556475082412 74.90070986188948,62.36001666728407 74.90070986188948,59.78039183886722 74.45350289717317,55.652989422902465 73.55908896960318,51.00965774152428 72.66467504575849,47.39817464211956 69.5342263020575,42.238908669911325 64.61494970880449,38.627419407479465 58.80125918611884,38.11149216396734 56.118017407134175,38.11149216396734 53.43477562814951,38.627419407479465 50.30432688631117,39.14334660116583 43.59622243978083,42.238908669911325 38.676945842802525,47.39817464211956 36.44091102667153,53.0733612277545 35.09929013811052,57.20076571730897 35.09929013811052,62.36001666728407 35.546497102826834,64.93964020069689 35.09929013811052,69.06703515769914 35.546497102826834,74.22627419233322 36.44091102667153,76.80589176900685 37.33532495237887,84.02881408808753 36.44091102667153,88.15619371458888 35.99370406381786,91.76764816697687 36.888117991387844,96.9268644102849 36.888117991387844,99.50647059082985 37.782531917095184,103.11791706643999 41.36018762178719,108.79304211447015 43.59622243978083,110.34080240270123 48.5154990311712,112.9204018493183 50.75153385102749,113.43632158264518 57.01243133470416,113.95224126428366 59.24846614897251,113.95224126428366 65.06215667165816,112.40448206337169 66.85098452307284,110.85672239493579 70.42864022776484,107.24528135824949 73.55908896960318,101.05423367628828 74.00629593245685,98.474628274329 74.90070986188948,90.73580429609865 73.55908896960318,84.54473672388121 73.11188200861216,81.96512303361669 73.11188200861216,78.35366169176996 73.11188200861216,74.74219781160355 73.55908896960318,68.55111096939072 74.00629593245685,65.97148924926296 74.45350289717317,62.875941476318985 74.00629593245685,55.652989422902465 73.55908896960318,53.0733612277545 73.11188200861216,49.97780568525195 70.42864022776484,42.75483550084755 66.40377755835652,39.14334660116583 59.69567311182618,36.56371011864394 53.88198259100318,37.079637518618256 49.40991296060383,38.11149216396734 38.676945842802525,45.85039539495483 36.888117991387844,49.461879581213 34.6520831733942,56.16891490481794 34.20487621054053,59.78039183886722 34.20487621054053,62.875941476318985 34.6520831733942,68.03518672846258 35.09929013811052,71.64665532298386 35.546497102826834,74.74219781160355 35.99370406381786,77.83773843524978 36.44091102667153,85.06065930565819 35.99370406381786,87.64027144294232 35.546497102826834,90.21988228429109 35.546497102826834,92.79949183063582 35.99370406381786,98.474628274329 36.888117991387844,104.14975845022127 40.01856673322618,109.82488235877827 46.27946421690285,113.95224126428366 48.96270599588752,114.46816089516506 55.22360347956419,114.98408047389239 57.9068452604115,114.98408047389239 63.72053577937186,113.95224126428366 66.40377755835652,111.888562226668 72.21746808290482,105.6975201391615 73.55908896960318,102.0860754745081 75.34791682474315,95.37910008290783 75.34791682474315,92.79949183063582 75.34791682474315,89.18803810467944 75.34791682474315,85.57658183854073 74.90070986188948,78.8695848970674 74.45350289717317,75.25812137825415 75.34791682474315,69.06703515769914 75.34791682474315,65.45556475082412 75.34791682474315,62.875941476318985 75.79512378759682,60.29631690820679 75.34791682474315,54.10521266143769 73.11188200861216,46.88224827731028 65.50936363451183,41.207054855301976 62.37891489081085,40.17520083114505 59.69567311182618,39.65927374130115 52.98756866529584,38.627419407479465 49.85711992159486,39.14334660116583 44.043429400771856,40.69112787023187 39.571359772235155,44.302615681663156 37.782531917095184,46.36632186220959 34.20487621054053,56.16891490481794 33.75766924768686,59.78039183886722 33.75766924768686,63.39186623552814 35.09929013811052,69.58295929385349 35.09929013811052,72.1625792006962 35.99370406381786,75.25812137825415 36.44091102667153,79.38550804881379 36.44091102667153,84.54473672388121 35.546497102826834,88.15619371458888 35.99370406381786,94.34725693706423 36.44091102667153,97.95870703877881 38.229738879948854,103.63383778324351 40.01856673322618,106.72936100373045 44.043429400771856,110.85672239493579 49.85711992159486,113.95224126428366 53.43477562814951,114.46816089516506 59.69567311182618,114.98408047389239 62.37891489081085,114.46816089516506 68.1926054134965,111.888562226668 69.98143326304853,110.85672239493579 74.00629593245685,105.6975201391615 74.90070986188948,102.0860754745081 76.24233075231314,96.4109430196695 76.24233075231314,93.31541358400136 75.79512378759682,89.18803810467944 75.79512378759682,86.60842674365267 74.90070986188948,78.8695848970674 74.90070986188948,75.77404489414766 74.90070986188948,72.1625792006962 75.34791682474315,64.93964020069689 75.34791682474315,62.36001666728407 74.45350289717317,56.16891490481794 73.55908896960318,52.557435433380306 73.11188200861216,49.97780568525195 68.1926054134965,42.238908669911325 62.37891489081085,39.14334660116583 55.670810444280505,38.627419407479465 50.30432688631117,39.14334660116583 46.72667117975652,40.69112787023187 44.490636363625526,41.72298178821802 40.46577369607985,44.81854230398312 38.676945842802525,46.88224827731028 35.546497102826834,51.00965774152428 34.6520831733942,57.20076571730897 33.75766924768686,62.36001666728407 33.75766924768686,67.51926243631169 34.6520831733942,70.61480741202831 35.546497102826834,72.1625792006962 36.44091102667153,74.74219781160355 37.782531917095184,82.99696866422892 36.888117991387844,86.60842674365267 36.44091102667153,89.70396021893248 36.44091102667153,92.2835700251162 35.99370406381786,98.99054945865646 36.888117991387844,102.0860754745081 37.782531917095184,104.66567906551063 42.701808512210846,110.85672239493579 48.5154990311712,113.43632158264518 55.22360347956419,113.95224126428366 59.24846614897251,113.95224126428366 69.98143326304853,108.27712191548198 73.11188200861216,97.44278575060889 73.11188200861216,92.79949183063582 73.11188200861216,89.70396021893248 72.66467504575849,82.99696866422892 72.66467504575849,80.4173541967757 72.66467504575849,76.28996835649014 72.66467504575849,73.71035052230582 73.11188200861216,65.45556475082412 73.55908896960318,61.32816689182073 73.55908896960318,57.20076571730897 71.7702611181885,49.461879581213 64.16774274408817,41.72298178821802 60.59008703939617,40.69112787023187 52.98756866529584,39.65927374130115 46.27946421690285,41.207054855301976 40.46577369607985,45.334468874614686 36.44091102667153,55.652989422902465 36.44091102667153,58.232616322580725 35.99370406381786,62.36001666728407 35.99370406381786,68.55111096939072 36.44091102667153,72.67850302578881 37.33532495237887,76.80589176900685 36.888117991387844,85.57658183854073 36.44091102667153,89.18803810467944 36.44091102667153,93.31541358400136 37.33532495237887,100.53831270011142 40.91298065893352,107.7612016624771 51.19874081015587,114.46816089516506 72.21746808290482,102.0860754745081 73.55908896960318,97.44278575060889 74.45350289717317,89.70396021893248 74.90070986188948,86.60842674365267" stroke="#4dd2ff" stroke-linecap="round" stroke-linejoin="round" stroke-width="0.5"><title>2017-10-13 4.3km</title></polyline><polyline fill="none" points="160.91461391933262,66.36014554556459 160.446537040174,63.12013936415315 160.446537040174,59.88013123255223 160.91461391933262,56.640121147502214 160.446537040174,48.00008471403271 157.16999887861311,42.600054894108325 151.55307631753385,37.200019653420895 140.78730808012187,34.5 135.1703855227679,35.040004038251936 129.08538608066738,38.820030794944614 125.34077104181051,43.68006129330024 122.53230976313353,50.70009759161621 122.06423288397491,53.94011125341058 122.06423288397491,60.96013416023925 122.06423288397491,64.20014164177701 122.53230976313353,66.90014638658613 123.46846352517605,69.60014977445826 123.93654040247202,77.16015205113217 123.46846352517605,80.40014977287501 123.00038664415479,83.10014638630673 122.06423288397491,86.88013936532661 122.06423288397491,93.90011927718297 122.06423288397491,97.68010466499254 123.93654040247202,103.0800791834481 124.8726941626519,105.24006747175008 130.0215398427099,110.64003440085799 137.04269303940237,114.42000802373514 143.1276924815029,114.96000403817743 145.93615376017988,114.42000802373514 152.0211531985551,112.8000196525827 156.7019219994545,109.56004144670442 160.91461391933262,102.54008197505027 161.38269079849124,99.84009512327611 162.31884455680847,97.14010691503063 163.72307519987226,93.90011927718297 166.99961335770786,87.96013686992228 166.99961335770786,87.96013686992228 166.99961335770786,88.50013554049656 166.5315364766866,88.50013554049656 166.06345959752798,89.04013415891677 166.5315364766866,88.50013554049656 166.5315364766866,88.50013554049656 166.5315364766866,88.50013554049656 166.5315364766866,88.50013554049656 166.06345959752798,87.96013686992228 164.19115207903087,86.88013936532661 163.254998318851,82.56014717044309 162.78692143782973,79.32015075022355 162.31884455680847,75.54015245800838 162.31884455680847,71.76015150919557 161.85076767764986,64.20014164177701 161.85076767764986,61.50013554375619 161.85076767764986,57.720124726649374 162.31884455680847,55.020115374121815 161.38269079849124,48.00008471403271 158.5742295179516,42.060051614418626 150.148845680058,35.040004038251936 142.65961560048163,34.5 139.851154319942,34.5 132.83000112138689,36.12001195596531 127.68115544319153,40.44004144938663 125.34077104181051,43.14005812071264 123.00038664415479,48.54008739767596 123.00038664415479,52.320104665122926 123.00038664415479,54.48011334147304 121.59615600295365,60.420132723171264 120.66000224277377,62.580138145014644 121.12807912193239,67.44014717219397 121.12807912193239,72.84015205223113 121.12807912193239,76.62015224155039 121.12807912193239,79.32015075022355 121.59615600295365,83.10014638630673 122.06423288397491,87.96013686992228 122.53230976313353,91.74012643145397 123.00038664415479,95.52011333918199 123.00038664415479,97.68010466499254 125.34077104181051,104.70007048128173 128.14923232235014,109.56004144670442 134.23423176258802,112.8000196525827 137.51076992228627,113.34001583140343 143.1276924815029,114.42000802373514 151.08499944023788,112.8000196525827 156.7019219994545,109.02004489023238 158.10615263693035,107.40005489392206 161.85076767764986,102.0000847117044 162.78692143782973,98.22010236000642 163.72307519987226,94.44011735124514 164.19115207903087,89.04013415891677 164.19115207903087,86.3401405303739 162.31884455680847,80.94014920433983 162.31884455680847,75.00015248451382 162.31884455680847,72.30015180725604 162.31884455680847,69.60014977445826 162.31884455680847,66.36014554556459 163.254998318851,59.88013123255223 163.254998318851,53.94011125341058 162.31884455680847,48.00008471403271 161.38269079849124,45.300070482771844 157.63807575963438,40.44004144938663 154.82961447909474,37.740023421123624 149.21269191987813,35.58000802388415 145.93615376017988,35.040004038251936 138.4469236806035,35.040004038251936 135.63846240006387,36.12001195596531 127.68115544319153,41.52004828071222 125.80884792283177,44.22006441047415 123.46846352517605,50.16009512450546 123.00038664415479,52.86010691616684 123.00038664415479,56.10011927643791 122.53230976313353,58.80012808833271 122.53230976313353,64.74014269933105 123.00038664415479,66.90014638658613 123.00038664415479,69.60014977445826 123.00038664415479,72.84015205223113 122.53230976313353,79.32015075022355 123.00038664415479,82.56014717044309 123.46846352517605,85.26014269841835 123.46846352517605,89.04013415891677 123.00038664415479,94.98011537175626 123.93654040247202,100.38009260082617 126.27692480571568,105.78006440820172 127.68115544319153,107.94005161430687 133.2980780005455,112.26002342114225 135.63846240006387,113.34001583140343 142.65961560048163,114.42000802373514 145.0,114.42000802373514 148.7446150407195,113.88001195527613 152.48923008143902,113.34001583140343 157.63807575963438,110.64003440085799 161.38269079849124,104.70007048128173 162.78692143782973,99.30009758891538 162.78692143782973,96.60010911058635 162.78692143782973,93.3601211477071 163.254998318851,90.6601296858862 163.254998318851,87.96013686992228 163.254998318851,82.0201479033567 162.31884455680847,78.24015150917694 162.31884455680847,73.38015224086121 162.78692143782973,71.22015115665272 162.31884455680847,68.52014858229086 162.31884455680847,65.28014370286837 162.78692143782973,62.04013687139377 161.38269079849124,56.640121147502214 161.38269079849124,54.48011334147304 160.446537040174,51.240100004244596 159.97846015915275,48.00008471403271 158.10615263693035,42.600054894108325 153.89346071891487,37.740023421123624 148.27653815969825,34.5 145.93615376017988,34.5 139.38307744264603,34.5 133.2980780005455,36.12001195596531 130.95769360288978,37.740023421123624 125.34077104181051,43.14005812071264 124.40461728349328,45.300070482771844 123.93654040247202,48.00008471403271 123.46846352517605,53.94011125341058 123.46846352517605,56.640121147502214 123.00038664415479,59.340129686519504 123.00038664415479,62.04013687139377 123.00038664415479,69.06014920584857 123.46846352517605,71.76015150919557 123.00038664415479,77.16015205113217 122.53230976313353,83.10014638630673 123.00038664415479,86.3401405303739 123.00038664415479,89.04013415891677 123.00038664415479,91.74012643145397 123.93654040247202,100.38009260082617 124.8726941626519,102.54008197505027 131.4257704820484,110.64003440085799 134.70230864174664,111.72002713568509 141.7234618421644,113.88001195527613 144.53192312084138,113.88001195527613 152.48923008143902,112.8000196525827 154.82961447909474,111.18003079481423 159.04230639897287,107.40005489392206 160.446537040174,104.70007048128173 161.85076767764986,99.30009758891538 162.78692143782973,96.06011125259101 162.78692143782973,89.04013415891677 162.31884455680847,85.80014164093882 161.85076767764986,83.6401455453597 161.85076767764986,81.4801485799253 161.38269079849124,78.78015115577728 161.38269079849124,72.84015205223113 161.85076767764986,70.14015028905123 162.31884455680847,66.90014638658613 162.31884455680847,62.04013687139377 161.85076767764986,59.88013123255223 161.38269079849124,57.720124726649374 161.38269079849124,55.56011735321954 161.85076767764986,53.400109111797065 159.51038327813148,46.9200791856274 155.76576823741198,40.980044891126454 153.42538383975625,38.820030794944614 146.87230752035975,35.58000802388415 140.31923120096326,35.040004038251936 136.5746161621064,35.58000802388415 130.95769360288978,38.280027135740966 127.21307856403291,42.060051614418626 125.34077104181051,44.22006441047415 123.00038664415479,49.080090027302504 122.53230976313353,55.020115374121815 122.53230976313353,57.720124726649374 122.53230976313353,60.420132723171264 122.53230976313353,63.12013936415315 122.53230976313353,65.28014370286837 123.00038664415479,71.22015115665272 123.46846352517605,73.92015237733722 123.00038664415479,76.62015224155039 122.53230976313353,79.86015028972179 123.00038664415479,82.56014717044309 123.46846352517605,84.72014370094985 123.46846352517605,89.58013272192329 123.93654040247202,92.28012472577393 123.93654040247202,97.68010466499254 125.34077104181051,100.92009002668783 127.21307856403291,106.32006129110232 129.08538608066738,108.48004827974364 133.2980780005455,111.72002713568509 135.1703855227679,112.8000196525827 141.25538496114314,114.42000802373514 145.0,113.88001195527613 147.80846128053963,113.88001195527613 155.76576823741198,110.10003795102239 157.63807575963438,107.94005161430687 159.04230639897287,106.32006129110232 160.91461391933262,102.0000847117044 161.38269079849124,99.84009512327611 161.85076767764986,93.90011927718297 160.91461391933262,90.6601296858862 161.85076767764986,86.3401405303739 162.31884455680847,84.18014465039596 162.31884455680847,77.70015180576593 162.31884455680847,73.92015237733722 162.31884455680847,70.14015028905123 162.31884455680847,66.90014638658613 162.31884455680847,62.04013687139377 161.85076767764986,58.80012808833271 161.85076767764986,56.10011927643791 161.38269079849124,53.94011125341058 160.91461391933262,49.080090027302504 158.10615263693035,44.22006441047415 153.42538383975625,39.360034401062876 147.80846128053963,36.12001195596531 141.25538496114314,35.040004038251936 134.70230864174664,36.12001195596531 131.4257704820484,37.200019653420895 125.34077104181051,42.060051614418626 124.40461728349328,44.22006441047415 123.00038664415479,50.16009512450546 122.53230976313353,52.320104665122926 122.53230976313353,56.10011927643791 123.00038664415479,61.50013554375619 123.46846352517605,64.74014269933105 123.46846352517605,67.98014790471643 123.93654040247202,70.68015075009316 123.93654040247202,73.92015237733722 123.46846352517605,80.40014977287501 124.8726941626519,95.52011333918199 124.8726941626519,98.76010000286624 125.80884792283177,103.62007633643225 129.08538608066738,107.94005161430687 135.1703855227679,112.26002342114225 142.65961560048163,113.34001583140343 148.7446150407195,113.88001195527613 154.36153759807348,112.26002342114225 158.5742295179516,109.02004489023238 161.38269079849124,103.0800791834481 161.85076767764986,100.38009260082617 161.85076767764986,97.68010466499254 161.85076767764986,91.20012808591127 162.31884455680847,87.96013686992228 162.31884455680847,85.26014269841835 161.85076767764986,82.0201479033567 161.85076767764986,79.32015075022355 160.91461391933262,75.00015248451382 161.85076767764986,71.22015115665272 161.85076767764986,68.52014858229086 161.85076767764986,66.36014554556459 161.85076767764986,64.20014164177701 162.31884455680847,58.26012643519789 161.85076767764986,54.48011334147304 161.85076767764986,51.78010236239061 161.38269079849124,49.080090027302504 159.51038327813148,44.76006747316569 156.7019219994545,42.600054894108325 155.297691360116,40.44004144938663 147.34038439951837,35.040004038251936 144.06384623982012,34.5 137.04269303940237,35.040004038251936 130.0215398427099,38.280027135740966 127.68115544319153,40.980044891126454 123.46846352517605,45.84007343649864 123.00038664415479,48.00008471403271 122.53230976313353,54.48011334147304 122.53230976313353,57.720124726649374 123.00038664415479,59.88013123255223 123.46846352517605,63.660140530671924 123.93654040247202,68.52014858229086 123.93654040247202,71.22015115665272 123.46846352517605,73.92015237733722 123.00038664415479,77.16015205113217 123.00038664415479,79.32015075022355 122.53230976313353,83.6401455453597 122.53230976313353,86.88013936532661 122.53230976313353,90.12013123137876 122.53230976313353,92.82012296328321 123.46846352517605,98.22010236000642 124.40461728349328,100.92009002668783 127.21307856403291,106.86005812091753 131.4257704820484,110.64003440085799 137.51076992228627,112.8000196525827 139.851154319942,112.8000196525827 143.1276924815029,112.8000196525827 146.87230752035975,113.34001583140343 152.0211531985551,113.34001583140343 157.16999887861311,110.10003795102239 160.91461391933262,105.24006747175008 162.31884455680847,99.84009512327611 162.31884455680847,94.44011735124514 162.31884455680847,91.74012643145397 162.31884455680847,88.50013554049656 161.85076767764986,85.26014269841835 161.38269079849124,80.40014977287501 161.85076767764986,77.70015180576593 161.85076767764986,74.46015245793387 161.85076767764986,71.76015150919557 161.38269079849124,69.06014920584857 161.38269079849124,62.04013687139377 161.38269079849124,59.340129686519504 160.91461391933262,55.56011735321954 160.446537040174,51.78010236239061 158.5742295179516,45.84007343649864 150.148845680058,37.740023421123624 147.80846128053963,36.66001583216712 142.19153872318566,35.040004038251936 135.63846240006387,36.66001583216712 130.0215398427099,39.360034401062876 125.80884792283177,44.22006441047415 123.46846352517605,50.16009512450546 123.00038664415479,52.86010691616684 122.53230976313353,56.640121147502214 123.00038664415479,63.12013936415315 123.46846352517605,66.36014554556459 123.46846352517605,70.14015028905123 123.46846352517605,72.84015205223113 123.46846352517605,80.40014977287501 123.46846352517605,84.18014465039596 123.93654040247202,86.3401405303739 123.93654040247202,90.12013123137876 123.93654040247202,96.06011125259101 124.8726941626519,99.30009758891538 127.21307856403291,105.24006747175008 135.1703855227679,111.72002713568509 142.65961560048163,113.34001583140343 145.46807688102126,113.34001583140343 152.95730696059763,111.72002713568509 158.10615263693035,108.48004827974364 159.97846015915275,105.78006440820172 161.85076767764986,99.30009758891538 161.85076767764986,92.28012472577393 161.38269079849124,89.58013272192329 161.85076767764986,86.3401405303739 162.31884455680847,82.56014717044309 161.85076767764986,76.62015224155039 161.38269079849124,72.30015180725604 161.38269079849124,69.60014977445826 161.38269079849124,65.82014465145767 161.38269079849124,59.340129686519504 160.91461391933262,55.020115374121815 160.446537040174,52.320104665122926 160.446537040174,49.080090027302504 157.16999887861311,41.52004828071222 152.48923008143902,37.200019653420895 145.46807688102126,35.040004038251936 139.851154319942,35.040004038251936 137.04269303940237,35.58000802388415 131.89384736306965,38.280027135740966 127.21307856403291,42.060051614418626 123.93654040247202,47.46008197683841 123.00038664415479,53.400109111797065 123.46846352517605,56.640121147502214 123.00038664415479,59.88013123255223 123.00038664415479,62.04013687139377 123.46846352517605,69.06014920584857 123.93654040247202,71.22015115665272 123.93654040247202,73.92015237733722 123.46846352517605,77.16015205113217 123.46846352517605,84.72014370094985 123.46846352517605,87.42013814346865 123.46846352517605,94.44011735124514 123.93654040247202,97.68010466499254 124.8726941626519,100.92009002668783 127.68115544319153,106.86005812091753 132.36192424222827,111.72002713568509 134.70230864174664,112.26002342114225 141.7234618421644,115.5 147.80846128053963,114.42000802373514 150.148845680058,113.34001583140343 153.42538383975625,111.72002713568509 158.5742295179516,106.86005812091753 160.91461391933262,100.38009260082617 161.38269079849124,97.68010466499254 161.85076767764986,94.44011735124514 162.31884455680847,91.20012808591127 162.78692143782973,85.26014269841835 162.78692143782973,82.56014717044309 162.31884455680847,79.32015075022355 161.85076767764986,76.08015237748623 162.31884455680847,70.14015028905123 162.31884455680847,66.90014638658613 162.31884455680847,63.12013936415315 162.31884455680847,60.420132723171264 162.31884455680847,57.720124726649374 161.85076767764986,52.86010691616684 159.97846015915275,45.84007343649864 158.10615263693035,43.68006129330024 153.42538383975625,38.820030794944614 147.34038439951837,36.12001195596531 144.06384623982012,35.58000802388415 137.51076992228627,35.040004038251936 132.36192424222827,37.200019653420895 130.0215398427099,38.820030794944614 127.68115544319153,40.980044891126454 123.93654040247202,46.9200791856274 123.00038664415479,53.400109111797065 123.00038664415479,56.640121147502214 123.00038664415479,59.340129686519504 123.00038664415479,62.04013687139377 123.93654040247202,67.44014717219397 123.93654040247202,69.60014977445826 123.93654040247202,73.38015224086121 124.40461728349328,76.62015224155039 124.40461728349328,82.56014717044309 124.40461728349328,85.26014269841835 124.40461728349328,88.50013554049656 123.93654040247202,91.74012643145397 123.93654040247202,93.90011927718297 124.8726941626519,100.38009260082617 129.55346296168864,108.48004827974364 131.89384736306965,110.64003440085799 137.97884680330753,113.88001195527613 144.53192312084138,114.42000802373514 150.61692255921662,113.34001583140343 158.10615263693035,107.94005161430687 161.38269079849124,102.54008197505027 161.85076767764986,98.22010236000642 162.31884455680847,95.52011333918199 162.78692143782973,92.82012296328321 163.72307519987226,86.88013936532661 163.254998318851,83.10014638630673 162.78692143782973,79.86015028972179 162.31884455680847,77.70015180576593 162.31884455680847,75.00015248451382 161.38269079849124,69.06014920584857 161.85076767764986,66.90014638658613 161.85076767764986,64.74014269933105 161.85076767764986,61.50013554375619 161.85076767764986,58.80012808833271 161.38269079849124,50.70009759161621 160.91461391933262,46.9200791856274 158.10615263693035,40.980044891126454 155.76576823741198,38.820030794944614 149.68076879903674,36.12001195596531 147.34038439951837,35.58000802388415 140.31923120096326,35.040004038251936 137.51076992228627,35.040004038251936 129.55346296168864,38.280027135740966 124.40461728349328,42.600054894108325 122.53230976313353,48.54008739767596 123.00038664415479,53.94011125341058 123.93654040247202,57.720124726649374 123.93654040247202,60.96013416023925 123.93654040247202,63.660140530671924 123.93654040247202,70.14015028905123 123.46846352517605,73.38015224086121 123.46846352517605,75.54015245800838 123.93654040247202,78.78015115577728 123.46846352517605,84.72014370094985 123.46846352517605,88.50013554049656 123.46846352517605,91.74012643145397 123.93654040247202,94.98011537175626 124.8726941626519,100.92009002668783 128.14923232235014,106.32006129110232 130.0215398427099,108.48004827974364 131.89384736306965,110.10003795102239 137.51076992228627,113.34001583140343 139.851154319942,113.88001195527613 146.87230752035975,113.88001195527613 152.95730696059763,111.18003079481423 158.5742295179516,106.32006129110232 159.97846015915275,104.16007343726233 162.31884455680847,98.76010000286624 162.78692143782973,96.06011125259101 163.254998318851,89.04013415891677 163.254998318851,86.88013936532661 163.254998318851,83.10014638630673 163.254998318851,79.86015028972179 162.78692143782973,74.46015245793387 162.78692143782973,71.22015115665272 162.78692143782973,69.06014920584857 162.78692143782973,66.90014638658613 162.78692143782973,63.660140530671924 162.31884455680847,56.10011927643791 161.85076767764986,53.94011125341058 162.31884455680847,50.16009512450546 160.91461391933262,44.76006747316569 158.10615263693035,39.90003795269877 152.95730696059763,36.12001195596531 139.38307744264603,34.5 132.83000112138689,37.740023421123624 127.21307856403291,44.76006747316569 123.93654040247202,52.86010691616684 123.93654040247202,56.640121147502214 123.46846352517605,60.420132723171264 123.93654040247202,68.52014858229086 123.93654040247202,73.92015237733722 123.93654040247202,78.24015150917694 123.46846352517605,85.26014269841835 123.93654040247202,89.04013415891677 123.46846352517605,93.90011927718297 127.21307856403291,105.24006747175008 142.19153872318566,113.88001195527613 154.82961447909474,109.56004144670442 160.446537040174,103.0800791834481 162.31884455680847,98.22010236000642 163.72307519987226,90.6601296858862 166.06345959752798,83.10014638630673 167.93576711788774,80.40014977287501 168.8719208780676,78.78015115577728 169.33999775722623,78.24015150917694" stroke="#4dd2ff" stroke-linecap="round" stroke-linejoin="round" stroke-width="0.5"><title>2017-10-17 5.1km</title></polyline><polyline fill="none" points="75.1243234463036,219.06703515769914 73.7827018816024,214.93964019883424 73.33549469336867,210.81224192632362 72.88828750513494,207.71669104509056 71.99387313053012,200.49373173853382 69.75783719308674,194.30261568026617 61.26090062595904,187.0796375181526 50.97513530962169,186.0477826660499 46.95027062110603,186.56371011864394 38.90054124034941,193.2707622796297 35.77009093016386,199.46187958028167 35.32288374006748,202.0415095887147 34.87567655183375,206.16891490574926 34.42846936546266,208.74854154651985 33.08684780076146,214.93964019883424 33.534054988995194,218.03518672892824 33.98126217722893,221.6466553225182 33.98126217722893,224.74219781160355 34.42846936546266,235.06065930705518 34.87567655183375,241.7676481679082 34.87567655183375,244.3472569361329 35.32288374006748,247.4427857506089 36.664505302906036,252.60199629701674 39.79495561681688,256.72936100512743 41.583784367889166,257.7612016624771 43.81982030719519,259.82488235924393 48.29189218394458,261.88856222713366 51.86954968422651,262.4044820647687 55.89441437460482,262.4044820647687 62.155315002426505,261.88856222713366 70.20504437945783,256.72936100512743 72.88828750513494,250.53831270011142 74.22990906983614,243.31541358539835 74.22990906983614,239.7039602198638 73.33549469336867,231.44920013891533 72.88828750513494,228.86958489520475 73.33549469336867,222.67850302625448 73.33549469336867,218.55111096985638 72.88828750513494,215.45556475035846 72.88828750513494,207.20076571637765 72.4410803169012,203.58928696950898 70.65225156582892,196.88224827870727 67.07459406554699,190.69112786836922 65.2857653144747,189.14334660070017 51.42234249599278,186.0477826660499 44.71423468180001,188.62741940887645 41.583784367889166,190.69112786836922 37.55891967751086,195.85039539495483 36.2172981146723,198.94595342455432 34.42846936546266,206.68484033783898 33.534054988995194,213.90779094118625 33.98126217722893,216.48741369741037 34.42846936546266,220.0988833787851 34.87567655183375,222.67850302625448 34.42846936546266,229.9014311498031 34.87567655183375,232.99696866655722 34.87567655183375,236.60842674551532 34.87567655183375,242.79949183156714 35.32288374006748,245.8950215773657 35.32288374006748,248.99054945912212 36.664505302906036,254.6656790645793 41.13657717779279,259.82488235924393 43.37261311709881,261.3726423373446 50.080720933154225,264.4681608956307 56.341621559113264,264.4681608956307 59.02486468851566,263.95224126568064 67.07459406554699,259.82488235924393 70.20504437945783,254.6656790645793 72.4410803169012,249.5064705903642 73.33549469336867,245.37910008244216 73.33549469336867,240.2198822842911 73.33549469336867,237.1243491191417 73.33549469336867,234.54473672388121 72.88828750513494,231.9651230336167 72.88828750513494,225.774044893682 72.88828750513494,222.1625792006962 73.33549469336867,214.42371559655294 73.33549469336867,211.84409180516377 72.88828750513494,205.65298942336813 71.99387313053012,201.52558369049802 68.86342281475663,192.23890867084265 67.07459406554699,190.1752008316107 60.81369343586266,186.56371011864394 58.1304503120482,186.0477826660499 46.05585624463856,187.0796375181526 42.92540593072772,189.14334660070017 38.45333405584097,193.78668900579214 36.2172981146723,196.3663218622096 33.534054988995194,207.20076571637765 33.534054988995194,210.81224192632362 33.98126217722893,213.90779094118625 34.42846936546266,220.0988833787851 34.42846936546266,222.67850302625448 34.42846936546266,225.774044893682 34.87567655183375,229.3855080488138 34.87567655183375,234.54473672388121 34.87567655183375,238.15619371412322 34.42846936546266,240.73580429702997 33.98126217722893,244.3472569361329 34.42846936546266,250.0223916717805 35.32288374006748,253.11791706830263 44.71423468180001,263.43632158311084 46.50306343100965,263.95224126568064 52.316756872460246,265.5 59.02486468851566,264.4681608956307 63.049729377031326,262.4044820647687 69.75783719308674,258.27712191361934 73.7827018816024,251.57015460217372 74.67711625620723,248.474628274329 75.57153063081205,241.25172625714913 75.1243234463036,237.64027144340798 75.57153063081205,235.06065930705518 75.57153063081205,231.44920013891533 75.1243234463036,221.6466553225182 74.67711625620723,218.03518672892824 74.22990906983614,214.93964019883424 73.7827018816024,211.84409180516377 72.88828750513494,204.62113829981536 72.4410803169012,200.49373173853382 69.75783719308674,193.78668900579214 65.2857653144747,188.62741940887645 60.36648624949157,186.0477826660499 53.658378437161446,185.0159276081249 49.63351374678314,186.56371011864394 46.50306343100965,187.0796375181526 41.13657717779279,189.65927374130115 36.2172981146723,194.81854230351746 34.42846936546266,199.46187958028167 33.534054988995194,208.74854154651985 33.534054988995194,211.32816689135507 33.534054988995194,213.90779094118625 33.98126217722893,218.03518672892824 34.42846936546266,224.74219781160355 33.98126217722893,227.83773843478411 33.534054988995194,231.44920013891533 33.98126217722893,241.7676481679082 34.42846936546266,245.37910008244216 34.42846936546266,247.95870703924447 35.32288374006748,252.60199629701674 36.664505302906036,254.6656790645793 42.030991554260254,259.82488235924393 47.84468499571085,263.43632158311084 58.1304503120482,262.92040184978396 60.81369343586266,261.88856222713366 66.62738687731326,258.79304211447015 71.99387313053012,255.18159962724894 75.1243234463036,248.474628274329 74.67711625620723,241.7676481679082 74.67711625620723,238.6721159350127 74.22990906983614,234.54473672388121 75.1243234463036,229.3855080488138 74.22990906983614,222.1625792006962 73.33549469336867,218.03518672892824 72.4410803169012,214.42371559655294 71.54666594229639,207.71669104509056 71.54666594229639,205.13706388743594 70.65225156582892,198.94595342455432 67.52180125378072,192.23890867084265 63.049729377031326,188.62741940887645 55.89441437460482,186.0477826660499 49.186306558549404,186.56371011864394 43.37261311709881,189.65927374130115 40.24216280505061,191.72298178914934 36.664505302906036,196.88224827870727 34.87567655183375,203.58928696950898 32.192433424293995,212.3600166682154 32.192433424293995,216.48741369741037 32.192433424293995,220.0988833787851 30.850811863318086,228.35366169176996 30.403604676946998,230.41735419724137 31.298019049689174,237.64027144340798 31.298019049689174,239.7039602198638 31.298019049689174,242.2835700251162 31.745226239785552,244.86317853536457 31.745226239785552,247.95870703924447 33.98126217722893,254.6656790645793 38.45333405584097,259.82488235924393 41.583784367889166,261.3726423373446 44.71423468180001,263.43632158311084 49.63351374678314,265.5 53.21117124706507,265.5 56.78882874920964,265.5 62.155315002426505,264.4681608956307 70.20504437945783,254.6656790645793 73.33549469336867,248.99054945912212 73.7827018816024,246.41094302060083 74.67711625620723,240.2198822842911 75.1243234463036,237.1243491191417 75.1243234463036,233.51289140386507 74.22990906983614,227.3218151279725 72.4410803169012,219.06703515769914 72.4410803169012,215.97148925019428 72.4410803169012,211.84409180516377 71.54666594229639,206.16891490574926 71.0994587559253,203.07336122822016 70.65225156582892,199.97780568525195 65.2857653144747,190.69112786836922 59.919279063120484,187.0796375181526 54.10558562166989,186.56371011864394 51.86954968422651,186.56371011864394 49.186306558549404,186.56371011864394 44.267027493566275,188.62741940887645 42.030991554260254,190.1752008316107 38.90054124034941,191.72298178914934 33.534054988995194,195.85039539495483 31.745226239785552,200.49373173853382 31.298019049689174,207.71669104509056 31.298019049689174,210.2963169082068 31.298019049689174,215.45556475035846 32.192433424293995,223.19442680105567 32.192433424293995,227.3218151279725 32.192433424293995,231.44920013891533 32.192433424293995,238.6721159350127 31.745226239785552,241.7676481679082 31.745226239785552,245.37910008244216 33.534054988995194,252.60199629701674 35.32288374006748,256.21344059705734 44.267027493566275,263.95224126568064 46.50306343100965,264.98408047296107 54.55279281176627,265.5 61.70810781233013,264.4681608956307 70.20504437945783,258.79304211447015 71.99387313053012,255.6975201391615 72.88828750513494,253.11791706830263 74.67711625620723,247.4427857506089 74.67711625620723,244.3472569361329 74.67711625620723,241.25172625714913 75.1243234463036,238.15619371412322 74.67711625620723,231.9651230336167 74.67711625620723,228.35366169176996 73.33549469336867,222.1625792006962 72.4410803169012,214.93964019883424 71.99387313053012,211.84409180516377 71.99387313053012,207.71669104509056 71.99387313053012,205.13706388743594 71.0994587559253,199.46187958028167 68.41621562838554,192.23890867084265 63.94414375163615,188.11149216489866 57.68324312567711,185.53185516316444 51.42234249599278,186.0477826660499 48.29189218394458,187.0796375181526 42.92540593072772,189.65927374130115 40.6893699914217,192.7548355003819 36.664505302906036,198.43002721620724 35.77009093016386,208.23261632071808 35.77009093016386,211.84409180516377 35.77009093016386,214.42371559655294 36.2172981146723,217.0033380924724 37.11171249113977,223.19442680105567 38.006126867607236,229.9014311498031 37.55891967751086,234.02881408995017 37.55891967751086,236.60842674551532 37.11171249113977,240.2198822842911 37.11171249113977,246.9268644116819 37.55891967751086,250.53831270011142 39.34774843044579,255.18159962724894 44.71423468180001,259.82488235924393 50.080720933154225,261.3726423373446 57.23603593558073,261.88856222713366 63.49693656526506,259.82488235924393 66.62738687731326,257.24528135964647 69.31063000299037,253.6338377846405 70.65225156582892,250.0223916717805 72.4410803169012,243.83133528660983 72.88828750513494,240.73580429702997 72.88828750513494,237.1243491191417 72.4410803169012,228.86958489520475 71.99387313053012,225.25812137778848 71.99387313053012,221.6466553225182 71.99387313053012,213.39186623506248 71.99387313053012,210.81224192632362 71.54666594229639,204.1052126614377 71.0994587559253,201.00965773966163 70.65225156582892,198.43002721620724 68.41621562838554,192.7548355003819 66.62738687731326,191.20705485483631 61.70810781233013,187.0796375181526 58.1304503120482,186.0477826660499 55.44720718637109,185.53185516316444 49.186306558549404,185.53185516316444 46.05585624463856,187.0796375181526 40.24216280505061,191.20705485483631 38.45333405584097,193.2707622796297 35.77009093016386,198.43002721620724 34.87567655183375,201.00965773966163 33.534054988995194,205.13706388743594 33.08684780076146,211.84409180516377 33.08684780076146,219.5829592947848 33.08684780076146,222.1625792006962 33.08684780076146,226.28996835788712 33.534054988995194,232.99696866655722 34.42846936546266,240.73580429702997 34.87567655183375,244.3472569361329 34.87567655183375,246.9268644116819 37.11171249113977,253.11791706830263 38.006126867607236,255.18159962724894 41.583784367889166,259.30896226363257 47.39747780561447,262.4044820647687 50.97513530962169,262.92040184978396 56.341621559113264,262.92040184978396 63.49693656526506,260.3408024045639 66.18017969094217,259.30896226363257 70.65225156582892,255.18159962724894 72.88828750513494,250.0223916717805 74.22990906983614,246.41094302060083 74.67711625620723,240.73580429702997 74.22990906983614,237.1243491191417 73.7827018816024,234.02881408995017 73.33549469336867,230.41735419724137 73.33549469336867,223.71035052230582 72.88828750513494,219.5829592947848 72.88828750513494,215.97148925019428 72.4410803169012,207.20076571637765 71.99387313053012,203.58928696950898 70.65225156582892,197.91410095477477 66.62738687731326,191.72298178914934 61.70810781233013,187.0796375181526 58.577657498419285,186.0477826660499 51.86954968422651,184.5 43.81982030719519,187.59556486690417 42.030991554260254,189.65927374130115 38.006126867607236,195.85039539495483 37.11171249113977,198.43002721620724 34.87567655183375,205.65298942336813 34.42846936546266,208.23261632071808 34.42846936546266,211.84409180516377 33.98126217722893,214.42371559655294 34.87567655183375,222.1625792006962 35.32288374006748,224.74219781160355 35.32288374006748,231.44920013891533 35.32288374006748,235.57658183714375 35.77009093016386,239.7039602198638 35.77009093016386,246.41094302060083 36.2172981146723,251.57015460217372 39.34774843044579,256.72936100512743 46.05585624463856,261.3726423373446 53.21117124706507,262.92040184978396 62.60252218693495,259.82488235924393 65.73297250270844,257.24528135964647 68.86342281475663,254.6656790645793 72.88828750513494,245.37910008244216 72.4410803169012,242.2835700251162 72.88828750513494,238.6721159350127 71.99387313053012,232.481045874767 71.99387313053012,228.86958489520475 71.99387313053012,225.25812137778848 71.54666594229639,218.03518672892824 71.54666594229639,214.93964019883424 72.4410803169012,205.65298942336813 71.99387313053012,202.0415095887147 69.75783719308674,195.33446887601167 65.2857653144747,190.1752008316107 59.02486468851566,186.56371011864394 53.658378437161446,185.0159276081249 40.6893699914217,192.23890867084265 38.45333405584097,194.81854230351746 36.664505302906036,200.49373173853382 36.664505302906036,205.13706388743594 36.664505302906036,209.7803918402642 36.2172981146723,217.0033380924724 35.77009093016386,221.6466553225182 35.77009093016386,226.28996835788712 35.77009093016386,233.51289140386507 35.77009093016386,237.64027144340798 35.32288374006748,241.25172625714913 35.77009093016386,250.53831270011142 46.05585624463856,262.92040184978396 52.763964058831334,263.95224126568064 56.78882874920964,263.43632158311084 68.41621562838554,257.24528135964647 71.99387313053012,250.0223916717805 73.7827018816024,232.99696866655722 73.33549469336867,229.9014311498031 72.88828750513494,225.774044893682 71.99387313053012,211.84409180516377 72.4410803169012,208.23261632071808 71.99387313053012,198.43002721620724 63.49693656526506,188.62741940887645 42.030991554260254,190.69112786836922 37.11171249113977,197.91410095477477 35.32288374006748,209.2644667197019 35.32288374006748,213.90779094118625 35.32288374006748,224.2262741937302 35.32288374006748,228.86958489520475 34.87567655183375,232.99696866655722 35.32288374006748,242.2835700251162 38.90054124034941,256.21344059705734 57.68324312567711,262.4044820647687 71.54666594229639,255.6975201391615 75.57153063081205,242.2835700251162 79.14918813295662,230.93327719485387 79.14918813295662,230.93327719485387 79.59639532119036,231.44920013891533 79.59639532119036,230.41735419724137 79.14918813295662,230.41735419724137 79.14918813295662,230.41735419724137 79.14918813295662,230.41735419724137 78.25477375648916,225.25812137778848" stroke="#4dd2ff" stroke-linecap="round" stroke-linejoin="round" stroke-width="0.5"><title>2017-10-27 4.8km</title></polyline><polyline fill="none" points="180.06813304685056,213.8132010284753 180.02467811154202,213.8132010284753 180.06813304685056,213.86405379499774 180.28540772525594,213.91490655593225 180.45922746765427,214.06746480677975 180.80686695268378,214.37258116251905 180.89377682399936,214.32172845010064 181.4152360514272,214.677697324194 181.71942060091533,214.7794026681804 182.067060085712,215.0845185708895 182.80579399131238,215.5421920606168 183.10997854056768,215.64389722121996 183.54452789691277,215.9998651134374 185.0654506436549,216.96606234568753 185.5,217.57629117302713 185.32618025736883,217.93225763025112 185.23927038628608,218.23737152607646 185.0654506436549,218.64418975185254 184.84817596548237,218.84759873521398 184.76126609439962,219.05100763216615 184.6743562228512,219.15271204846795 184.5005364806857,219.45782516739564 184.37017167382874,219.61038165405625 184.10944205988199,220.06805082273786 184.02253218879923,220.32231128314743 183.8052575106267,220.62742365780286 183.63143776822835,220.98338784932275 183.58798283245414,221.18679584009806 183.45761802559718,221.44105570713873 183.37070815451443,221.69531543948688 183.24034334742464,221.94957503682235 182.89270386262797,222.40724197225063 182.7188841199968,222.55979752034182 182.5016094420571,222.7123530196841 182.3712446349673,222.96661207755096 182.24087982811034,223.11916744770133 181.84978540753946,223.4751297889452 181.50214592274278,223.88194356960594 181.4152360514272,224.13620200712467 181.32832618011162,224.33960865999688 181.24141630879603,224.54301522680908 180.9806866950821,225.00067968614167 180.7199570813682,225.45834370874218 180.45922746765427,225.91600729423226 180.28540772525594,226.06856172552216 179.6770386265125,227.2889954293496 179.37285407702439,228.05176491625025 179.0686695277691,228.3568723712524 178.85139484959655,228.7128308232932 178.6775751071982,228.81453318957938 178.32993562240154,229.17049130180385 178.19957081531174,229.27219357105787 178.11266094399616,229.57730024927878 178.06920600845478,229.78070459346054 177.72156652342528,230.03495990255033 177.54774678102694,230.08581094813417 177.15665236045606,230.49261911888607 176.9828326178249,230.69602307482273 176.8959227465093,230.79772502029664 176.6351931327954,231.00112884677947 176.54828326171264,231.05197978985962 176.4613733906299,231.1536816599546 176.07027896982618,231.30623442464275 175.9833690985106,231.20453258694033 175.85300429165363,231.20453258694033 175.6791845492553,231.10283072770108 175.50536480685696,231.00112884677947 175.2446351929102,230.84857598505914 175.07081545051187,230.74687405026634 174.59281115885824,230.69602307482273 174.24517167382874,230.59432110763737 174.02789699542336,230.54347011589562 173.41952789667994,230.34006609523203 172.2462446349673,229.83155566614005 171.9855150214862,229.67900243226904 171.72478540753946,229.57730024927878 171.50751072959974,229.52644914964912 171.24678111588582,229.37389581868774 170.72532188822515,229.22134243918117 170.50804721028544,229.11964015901322 170.24731759657152,229.01793785759946 170.07349785394035,228.96708669874351 169.37821888411418,228.61112843535375 169.11748927016743,228.56027723336592 168.8567596564535,228.50942602587747 168.59603004273959,228.45857481300482 168.37875536479987,228.40772359480616 167.98766094399616,228.20431866811123 167.68347639474086,227.95006238820497 166.9012875535991,227.95006238820497 166.42328326171264,226.93303592005395 166.1190987122245,226.9838872946857 164.68508583679795,226.32281900345697 164.554721029941,226.5262247286155 164.38090128754266,226.67877896578284 164.33744635176845,226.72963036739384 164.12017167382874,226.9838872946857 163.85944205988199,227.2889954293496 163.68562231748365,227.4415494237619 163.51180257485248,227.59410336968722 163.38143776799552,227.69580597337335 163.20761802583002,227.79750855549355 163.07725321874022,227.84835983850644 162.7730686692521,228.10261617213837 162.64270386262797,228.30602114234352 162.38197424868122,228.50942602587747 162.20815450628288,228.66197963204468 162.0343347636517,228.76368200907018 161.8605150214862,228.81453318957938 161.55633047199808,229.0687890109839 161.55633047199808,229.32304469763767 161.25214592250995,229.67900243226904 161.07832618011162,229.83155566614005 160.90450643748045,229.98410885146586 160.8175965663977,230.1366619882756 160.73068669531494,230.28921507668565 160.25268240319565,230.6451720938494 159.90504291839898,230.89942694432102 159.60085836914368,231.05197978985962 159.4270386265125,231.10283072770108 158.94903433462605,231.45878714078572 158.7752145922277,231.6113398083835 158.64484978513792,231.66219068670762 158.42757510696538,232.0181466845097 158.1668454934843,232.3232516151329 157.94957081531174,232.5775055756094 157.68884120159782,232.98431163199712 157.34120171656832,233.3402666480688 157.0804721028544,233.44196803256636 156.64592274674214,233.7470720569836 156.55901287519373,233.89962399634533 156.03755364799872,234.25557833298808 155.86373390536755,234.3572795234213 155.7333690985106,234.56068183953175 155.64645922742784,234.56068183953175 155.38572961371392,234.91663568513468 155.25536480685696,235.06918725246214 155.16845493554138,235.17088827030966 155.03809012868442,235.32343975658296 154.90772532159463,235.42514072053018 154.82081545027904,235.52684166282415 154.7339055791963,235.6285425836686 154.64699570811354,235.7302434828598 154.56008583656512,235.83194436033955 154.3428111586254,235.98449563639588 154.25590128754266,236.1370468638197 154.12553648045287,236.2387476550939 153.86480686673895,236.3912988016964 153.6909871243406,236.4421491730609 153.56062231748365,236.54384989963728 153.29989270376973,236.6455506045313 153.21298283245414,236.79810162170907 153.12607296113856,236.8489519499126 152.9957081542816,236.9506525901961 152.90879828319885,237.05235320908832 152.8218884121161,237.15405380609445 152.69152360525914,237.25575438168016 152.51770386262797,237.45915546812466 152.25697424868122,237.6625564682763 152.12660944182426,237.86595738198957 152.0396995707415,237.9168075970083 151.95278969942592,237.9676578065555 151.77896995702758,238.1202084030374 151.7355150214862,238.17105859096046 151.64860515017062,238.32360912268632 151.51824034331366,238.37445928907255 151.38787553622387,238.47615960575058 151.30096566514112,238.57785990074626 151.12714592250995,238.832110544201 150.82296137325466,239.08636105284677 150.56223175954074,239.23891129309777 150.51877682376653,239.39146148503642 150.38841201690957,239.49316158585134 150.34495708113536,239.64571169691044 150.30150214582682,239.79826175924973 150.0842274678871,239.95081177324755 149.9538626607973,240.05251175552257 149.82349785394035,240.15421171608614 149.3889484978281,240.30676161687006 149.2585836907383,240.3576115728356 149.08476394833997,240.45931146887597 148.91094420594163,240.51016140868887 148.6936695277691,240.6118612724822 148.51984978513792,240.71356111441855 148.38948497828096,240.81526093487628 148.21566523611546,240.86611083699972 147.9549356221687,241.12036026694113 147.78111587953754,241.2220600009896 147.65075107268058,241.27290986003936 147.34656652342528,241.52715907417587 147.08583690971136,241.5780089008622 146.69474248914048,241.73055834841216 145.9560085835401,242.18820639982005 145.47800429165363,242.4933048581006 145.2607296134811,242.74755342499702 145.1738197421655,242.84925281407777 144.99999999976717,242.95095218150527 144.86963519314304,243.10350119217765 144.78272532159463,243.25605015427573 144.52199570811354,243.51029831677442 144.34817596548237,243.61199754389236 144.2178111586254,243.71369674961898 143.9570815449115,243.96794466933352 143.82671673805453,244.0696437995066 143.73980686697178,244.17134290808463 143.5225321885664,244.3238915304246 143.34871244616807,244.476440104394 143.2183476393111,244.57813912653364 143.13143776822835,244.67983812725288 142.78379828319885,244.88323606393533 142.5230686692521,245.18833280721446 142.34924892685376,245.34088110580342 142.2188841199968,245.44257994490908 142.0016094420571,245.49342935628374 141.82778969942592,245.54427876221598 141.56706008547917,245.84937508468283 141.43669527885504,246.00192317308392 141.2628755364567,246.15447121311445 141.04560085828416,246.30701920445426 140.9152360514272,246.40871783843613 140.52414163085632,246.56126574901282 140.35032188822515,246.66296432889067 139.95922746765427,246.91721068465267 139.78540772525594,247.06975843335385 139.69849785394035,247.1206076722301 139.52467811154202,247.17145690554753 139.39431330468506,247.27315535600064 139.09012875519693,247.37485378506244 138.95976394810714,247.4765521926165 138.78594420594163,247.57825057854643 138.61212446331047,247.62909976328956 138.43830472091213,247.62909976328956 138.26448497828096,247.7307981167978 138.09066523588262,247.78164728559204 137.26502145896666,247.9850439062575 136.87392703839578,248.1884404408047 136.4828326178249,248.34098778493353 135.74409871245734,248.4935350807209 135.1357296134811,248.5952332507295 134.70118025736883,248.5952332507295 133.48444206011482,248.64608232781757 132.78916308982298,248.5952332507295 132.22424892685376,248.5952332507295 131.87660944182426,248.5952332507295 131.52896995679475,248.5952332507295 131.00751072959974,248.5952332507295 130.3991416306235,248.64608232781757 130.1384120171424,248.5952332507295 129.92113733896986,248.54438416840276 129.0954935620539,248.54438416840276 128.7913090127986,248.5952332507295 128.53057939885184,248.5952332507295 128.26984978537075,248.54438416840276 127.6614806863945,248.5952332507295 127.09656652342528,248.54438416840276 126.92274678102694,248.5952332507295 126.6620171670802,248.5952332507295 126.48819742468186,248.5952332507295 126.18401287542656,248.64608232781757 126.01019313302822,248.6969313993468 125.87982832593843,248.6969313993468 125.74946351908147,248.6969313993468 125.61909871222451,248.6969313993468 125.48873390536755,248.6969313993468 125.3583690985106,248.6969313993468 125.22800429188646,248.6969313993468 125.01072961348109,248.6969313993468 124.70654506399296,248.74778046560823 124.53272532182746,248.74778046560823 123.88090128730983,248.6969313993468 123.6201716735959,248.6969313993468 122.88143776799552,248.74778046560823 122.35997854056768,248.6969313993468 122.05579399131238,248.64608232781757 121.9688841199968,248.64608232781757 121.49087982811034,248.4935350807209 121.317060085712,248.39183688897174 121.317060085712,248.44268598759663 121.36051502125338,248.44268598759663 121.317060085712,248.44268598759663 121.317060085712,248.44268598759663 121.317060085712,248.44268598759663 121.317060085712,248.44268598759663 121.317060085712,248.44268598759663 121.317060085712,248.44268598759663 121.317060085712,248.44268598759663 121.317060085712,248.39183688897174 121.317060085712,248.39183688897174 121.317060085712,248.39183688897174 121.317060085712,248.39183688897174 121.2736051499378,248.34098778493353 121.2736051499378,248.39183688897174 121.2736051499378,248.39183688897174 121.2736051499378,248.39183688897174 121.2736051499378,248.39183688897174 121.2736051499378,248.39183688897174 121.2736051499378,248.34098778493353 121.23015021462925,248.34098778493353 121.05633047199808,248.39183688897174 120.88251072959974,248.39183688897174 120.70869098696858,248.39183688897174 120.44796137325466,248.39183688897174 120.23068669508211,248.39183688897174 120.05686695268378,248.39183688897174 119.70922746765427,248.39183688897174 119.4919527892489,248.39183688897174 119.10085836891085,248.34098778493353 118.79667381942272,248.34098778493353 118.53594420594163,248.34098778493353 117.92757510696538,248.34098778493353 117.66684549325146,248.44268598759663 117.49302575108595,248.4935350807209 117.10193133028224,248.5952332507295 116.5804721028544,248.5952332507295 116.14592274674214,248.54438416840276 115.84173819725402,248.54438416840276 114.62499999976717,248.54438416840276 114.19045064342208,248.54438416840276 113.97317596548237,248.5952332507295 113.71244635176845,248.5952332507295 113.58208154491149,248.5952332507295 113.23444205988199,248.54438416840276 113.01716738194227,248.54438416840276 112.93025751062669,248.54438416840276 112.75643776799552,248.5952332507295 112.58261802559718,248.6969313993468 112.40879828319885,248.6969313993468 112.27843347634189,248.6969313993468 112.19152360525914,248.64608232781757 112.06115879816934,248.6969313993468 111.93079399131238,248.6969313993468 111.58315450605005,248.64608232781757 111.40933476388454,248.64608232781757 111.23551502125338,248.64608232781757 110.93133047199808,248.44268598759663 110.80096566490829,248.34098778493353 110.67060085828416,248.1884404408047 110.45332618011162,248.13759131528786 110.49678111588582,248.13759131528786 110.45332618011162,248.13759131528786 110.49678111588582,248.13759131528786 110.49678111588582,248.13759131528786 110.49678111588582,248.13759131528786 110.5402360514272,248.1884404408047 110.49678111588582,248.1884404408047 110.49678111588582,248.1884404408047 110.49678111588582,248.1884404408047 110.49678111588582,248.1884404408047 110.45332618011162,248.1884404408047 110.49678111588582,248.13759131528786 110.49678111588582,248.13759131528786 110.49678111588582,248.13759131528786 110.49678111588582,248.13759131528786 110.49678111588582,248.13759131528786 110.45332618011162,248.13759131528786 110.5402360514272,248.1884404408047 110.5402360514272,248.13759131528786 110.49678111588582,248.13759131528786 110.49678111588582,248.0867421842995 110.5402360514272,248.1884404408047 110.5402360514272,248.13759131528786 110.49678111588582,248.13759131528786 110.5402360514272,248.13759131528786 110.49678111588582,248.13759131528786 110.49678111588582,248.1884404408047 110.49678111588582,248.13759131528786 110.49678111588582,248.13759131528786 110.49678111588582,248.13759131528786 110.49678111588582,248.13759131528786 110.49678111588582,248.13759131528786 110.49678111588582,248.13759131528786 110.49678111588582,248.13759131528786 110.45332618011162,248.13759131528786 110.36641630879603,248.13759131528786 110.14914163085632,248.0867421842995 110.06223175954074,248.0867421842995 109.8449570813682,248.03589304789784 109.71459227451123,248.03589304789784 109.41040772525594,248.03589304789784 109.01931330445223,248.1884404408047 108.88894849759527,248.34098778493353 108.75858369097114,248.44268598759663 108.49785407702439,248.5952332507295 108.32403433462605,248.5952332507295 108.19366952776909,248.5952332507295 107.88948497851379,248.64608232781757 107.84603004273959,248.64608232781757 107.88948497851379,248.5952332507295 108.01984978513792,248.5952332507295 108.15021459199488,248.64608232781757 108.36748927016743,248.74778046560823 108.36748927016743,249.25627083095605 108.41094420594163,249.4596668262093 108.49785407702439,249.66306273505324 108.49785407702439,250.0698542938626 108.49785407702439,250.22240103955846 108.54130901279859,250.52749438522733 108.54130901279859,250.52749438522733 108.41094420594163,250.42579662473872 108.23712446331047,250.32409884300432 108.45439914148301,250.37494773656363 108.49785407702439,249.86645855766255 108.54130901279859,249.71391169875278 108.54130901279859,249.51051581153297 108.54130901279859,249.4596668262093 108.49785407702439,249.51051581153297 108.49785407702439,249.51051581153297 108.45439914148301,249.51051581153297 108.49785407702439,249.51051581153297 108.49785407702439,249.51051581153297 108.49785407702439,249.51051581153297 108.49785407702439,249.4596668262093 108.54130901279859,249.4596668262093 108.54130901279859,249.40881783538498 108.5847639485728,249.40881783538498 108.5847639485728,249.40881783538498 108.5847639485728,249.40881783538498 108.5847639485728,249.3579688393511 108.62821888388135,249.40881783538498 108.62821888388135,249.40881783538498 108.97585836891085,249.307119837933 108.97585836891085,249.3579688393511 109.01931330445223,249.307119837933 108.97585836891085,249.307119837933 108.93240343336947,249.307119837933 108.88894849759527,249.3579688393511 108.88894849759527,249.3579688393511 108.88894849759527,249.3579688393511 108.88894849759527,249.3579688393511 108.88894849759527,249.3579688393511 108.88894849759527,249.307119837933 108.88894849759527,249.307119837933 108.88894849759527,249.307119837933 108.88894849759527,249.307119837933 108.80203862651251,249.25627083095605 108.67167381965555,248.90032763176714 108.67167381965555,248.6969313993468 108.5847639485728,248.54438416840276 108.41094420594163,248.54438416840276 108.23712446331047,248.5952332507295 108.15021459199488,248.5952332507295 108.06330472091213,248.5952332507295 107.80257510719821,248.5952332507295 107.62875536479987,248.5952332507295 107.28111587953754,248.5952332507295 107.10729613690637,248.54438416840276 106.93347639474086,248.54438416840276 106.71620171656832,248.54438416840276 106.54238197393715,248.54438416840276 106.36856223153882,248.54438416840276 106.19474248914048,248.5952332507295 105.84710300434381,248.64608232781757 105.4560085835401,248.64608232781757 105.32564377668314,248.64608232781757 105.15182403405197,248.64608232781757 104.97800429188646,248.64608232781757 104.67381974239834,248.64608232781757 104.67381974239834,248.6969313993468 104.84763948479667,248.6969313993468 105.02145922742784,248.64608232781757 104.97800429188646,248.4935350807209 104.71727467793971,248.13759131528786 104.63036480662413,247.9850439062575 104.54345493530855,248.03589304789784 104.5,247.9850439062575 104.5,247.9341947590874 104.54345493530855,247.88334560676594 104.63036480662413,247.83249644882744 104.8041845492553,247.83249644882744 104.89109442057088,247.83249644882744 105.02145922742784,247.7307981167978 105.23873390560038,247.62909976328956 105.32564377668314,247.6799489427649 105.4560085835401,247.62909976328956 105.4560085835401,247.62909976328956 105.67328326171264,247.52740138821537 105.8036480685696,247.4765521926165 105.8036480685696,247.4765521926165 105.84710300434381,247.42570299154613 105.84710300434381,247.42570299154613 105.84710300434381,247.42570299154613 105.97746781120077,247.4765521926165 105.97746781120077,247.4765521926165 106.1078326178249,247.4765521926165 106.23819742491469,247.52740138821537 106.54238197393715,247.57825057854643 106.67274678102694,247.57825057854643 106.84656652365811,247.57825057854643 106.93347639474086,247.57825057854643 107.06384120159782,247.62909976328956 107.36802575085312,247.52740138821537 107.54184549348429,247.52740138821537 107.67221030034125,247.42570299154613 107.93293991405517,247.32400457331096 108.1067596564535,247.17145690554753 108.23712446331047,246.96805993959424 108.49785407702439,246.86636142423959 108.71512875519693,246.7646628873772 108.88894849759527,246.56126574901282 108.88894849759527,246.30701920445426 108.84549356205389,246.20532054902287 108.75858369097114,246.10362187193823 108.71512875519693,245.84937508468283 108.71512875519693,245.69682694770745 108.71512875519693,245.5951281627058 108.71512875519693,245.49342935628374 108.67167381965555,245.34088110580342 108.62821888388135,245.23918224551016 108.62821888388135,244.93408553456538 108.62821888388135,244.88323606393533 108.62821888388135,244.67983812725288 108.62821888388135,244.52728961812682 108.5847639485728,244.3238915304246 108.5847639485728,244.17134290808463 108.54130901279859,243.96794466933352 108.5847639485728,243.86624551765271 108.5847639485728,243.71369674961898 108.5847639485728,243.357749435585 108.5847639485728,243.25605015427573 108.62821888388135,242.95095218150527 108.62821888388135,242.84925281407777 108.62821888388135,242.69670372246765 108.5847639485728,242.54415458225412 108.54130901279859,242.23905615630792 108.67167381965555,242.2899059074989 108.5847639485728,241.98480731991003 108.5847639485728,241.88310774732963 108.62821888388135,241.47630924219266 108.71512875519693,241.32375971376314 108.75858369097114,241.12036026694113 108.75858369097114,240.81526093487628 108.75858369097114,240.51016140868887 108.71512875519693,240.3576115728356 108.75858369097114,240.2559116552875 108.71512875519693,240.05251175552257 108.67167381965555,239.95081177324755 108.67167381965555,239.7474117439997 108.75858369097114,239.44231153820874 108.84549356205389,239.13721113835345 108.84549356205389,239.08636105284677 108.84549356205389,238.93381076381775 108.84549356205389,238.78126042641816 108.97585836891085,238.47615960575058 109.10622317576781,238.27275895082857 109.23658798262477,238.17105859096046 109.41040772525594,237.9168075970083 109.36695278971456,237.9168075970083 109.36695278971456,238.22190877367393 109.36695278971456,238.32360912268632 109.41040772525594,238.42530945019098 109.41040772525594,238.57785990074626 109.41040772525594,238.88296065665781 109.36695278971456,239.13721113835345 109.36695278971456,239.23891129309777 109.36695278971456,239.39146148503642 109.36695278971456,239.49316158585134 109.36695278971456,239.59486166521674 109.28004291839898,239.8999617739173 109.23658798262477,240.00166176698986 109.23658798262477,240.20506168834982 109.19313304708339,240.3576115728356 109.19313304708339,240.86611083699972 109.19313304708339,241.06951039182604 109.19313304708339,241.2220600009896 109.23658798262477,241.42545940485434 109.28004291839898,241.62885872204788 109.28004291839898,241.78140815350343 109.32349785394035,241.9339575363556 109.36695278971456,242.34075565336389 109.32349785394035,242.64585401443765 109.32349785394035,242.74755342499702 109.32349785394035,242.95095218150527 109.28004291839898,243.10350119217765 109.28004291839898,243.20520050570485 109.10622317576781,243.61199754389236 109.01931330445223,243.96794466933352 109.01931330445223,244.22219245421002 108.97585836891085,244.42559058507322 108.88894849759527,244.52728961812682 108.88894849759527,244.7306876195653 108.75858369097114,245.03578445976018 108.67167381965555,245.23918224551016 108.67167381965555,245.39173052817932 108.62821888388135,245.5951281627058 108.54130901279859,245.74767633213196 108.5847639485728,245.84937508468283 108.5847639485728,246.05277252520318 108.54130901279859,246.40871783843613 108.54130901279859,246.61211504164385 108.54130901279859,246.7646628873772 108.67167381965555,247.1206076722301 108.75858369097114,247.22230613359716 108.84549356205389,247.42570299154613 108.93240343336947,247.57825057854643 109.01931330445223,247.7307981167978 109.06276824022643,247.9850439062575 109.01931330445223,248.13759131528786 109.01931330445223,248.0867421842995 109.01931330445223,248.0867421842995 109.06276824022643,248.13759131528786 109.06276824022643,248.03589304789784 108.97585836891085,247.9850439062575 108.93240343336947,248.0867421842995 108.93240343336947,248.1884404408047 109.01931330445223,248.13759131528786 109.01931330445223,248.13759131528786 109.06276824022643,248.13759131528786 109.01931330445223,248.13759131528786 109.01931330445223,248.13759131528786 109.01931330445223,248.13759131528786 109.01931330445223,248.13759131528786 109.01931330445223,248.13759131528786 109.06276824022643,248.0867421842995 109.23658798262477,248.0867421842995 109.41040772525594,248.03589304789784 109.75804721005261,247.9850439062575 110.14914163085632,247.9850439062575 110.32296137348749,247.9341947590874 110.49678111588582,247.88334560676594 110.75751072936691,247.78164728559204 110.80096566490829,247.42570299154613 110.75751072936691,247.27315535600064 110.71405579382554,247.06975843335385 110.67060085828416,246.96805993959424 110.67060085828416,246.86636142423959 110.67060085828416,246.56126574901282 110.67060085828416,246.35786852418096 110.67060085828416,246.20532054902287 110.67060085828416,246.00192317308392 110.62714592250995,245.5951281627058 110.67060085828416,244.83238658789196 110.71405579382554,244.67983812725288 110.71405579382554,244.57813912653364 110.75751072936691,244.42559058507322 110.75751072936691,244.2730419949221 110.75751072936691,244.2730419949221 110.75751072936691,244.0696437995066 110.75751072936691,243.91709509617067 110.80096566490829,243.81539593375055 110.75751072936691,243.56114793306915 110.75751072936691,243.30689979763702 110.71405579382554,242.84925281407777 110.75751072936691,242.23905615630792 110.80096566490829,241.98480731991003 110.75751072936691,241.8322579531523 110.71405579382554,241.47630924219266 110.71405579382554,241.1712101366429 110.75751072936691,241.01866051115212 110.71405579382554,240.86611083699972 110.80096566490829,240.3576115728356 110.8444206006825,239.54401162831346 110.8444206006825,239.23891129309777 110.8444206006825,238.0693582095264 110.75751072936691,237.9168075970083 110.75751072936691,237.61170622627833 110.80096566490829,237.45915546812466 110.80096566490829,237.35745493569993 110.80096566490829,237.2049040964921 110.8444206006825,237.05235320908832 110.75751072936691,236.1370468638197 110.27950643771328,235.27258926644572 110.32296137348749,235.1200377639907 110.36641630879603,234.96748621299048 110.36641630879603,234.81493461332866 110.40987124457024,234.66238296535448 110.45332618011162,234.4589806921722 110.45332618011162,234.3064289308386 110.62714592250995,234.05217588730738 110.67060085828416,233.89962399634533 110.71405579382554,233.79792270893813 110.80096566490829,233.64537073724205 110.8444206006825,233.54366939561442 110.8444206006825,233.28941594768548 110.8444206006825,233.1368638140557 110.8444206006825,232.93346089372062 110.8444206006825,232.67920712204068 110.88787553622387,232.42495321543538 110.93133047199808,232.2724008068617 110.97478540753946,231.96729584393324 111.10515021439642,231.81474328952027 111.14860515017062,231.50963803529157 111.192060085712,231.00112884677947 111.67006437759846,229.88240673326072 111.80042918445542,229.4247469343827 111.8438841199968,229.11964015901322 111.67006437759846,228.30602114234352 111.4962446349673,227.4415494237619 111.4962446349673,227.1872927393706 111.45278969942592,226.93303592005395 111.40933476388454,226.62792755884584 111.27896995702758,225.9668587767228 111.32242489256896,225.25493753040791 111.40933476388454,225.15323440893553 111.67006437759846,225.0515312658099 111.75697424868122,224.8989765107981 112.27843347634189,224.6447184776771 112.45225321897306,224.54301522680908 112.62607296113856,224.49216359318234 112.75643776799552,224.33960865999688 112.9737124464009,224.23790534446016 113.10407725302503,224.18705367841176 113.40826180228032,224.18705367841176 113.66899141622707,224.13620200712467 113.92972103017382,224.03449864828144 114.23390557919629,223.88194356960594 114.62499999976717,223.72938844226883 114.84227467793971,223.67853672226192 115.01609442033805,223.62768499704544 115.10300429165363,223.57683326647384 115.27682403405197,223.57683326647384 115.6244635193143,223.52598153040162 115.9286480685696,223.27172276913188 116.18937768228352,223.0174638730532 116.36319742468186,222.96661207755096 116.49356223177165,222.91576027695555 116.66738197416998,222.864908470714 116.88465665234253,222.81405665903003 117.05847639474086,222.7123530196841 117.18884120159782,222.6615011919348 117.53648068662733,222.55979752034182 117.71030042902566,222.45809382695006 117.84066523588262,222.45809382695006 118.10139484959655,222.40724197225063 118.27521459222771,222.35639011202147 118.44903433462605,222.25468637570157 118.57939914148301,222.20383449931978 118.92703862651251,222.1021307304909 119.10085836891085,222.1021307304909 119.27467811154202,222.0512788380147 119.44849785394035,222.0512788380147 119.62231759633869,222.0512788380147 119.79613733896986,222.00042694003787 119.96995708160102,221.89872312819352 119.92650214582682,221.94957503682235 120.44796137325466,221.79701929463772 120.75214592274278,221.64446350379148 120.92596566514112,221.5427596163645 121.01287553622387,221.49190766445827 121.14324034331366,221.3902037445805 121.2736051499378,221.2884998031659 121.40396995702758,221.03423985515838 121.49087982811034,220.8816838217026 121.53433476365171,220.62742365780286 121.317060085712,219.712085951498 121.18669527885504,219.35612081596628 121.01287553622387,218.79674649739172 120.92596566514112,218.44078068216913 120.88251072959974,218.13566691585584 120.79560085828416,217.6779959020496 120.75214592274278,217.1694720411324 120.6652360514272,216.864357465558 120.57832618011162,216.6100951709377 120.44796137325466,215.84730747775757 120.10032188845798,215.0845185708895 120.10032188845798,214.88110799051356 119.6657725321129,214.32172845010064 119.4919527892489,214.01661206188146 119.5354077250231,213.3555258878332 119.44849785394035,213.2029674105288 119.40504291816615,212.8978503101971 119.44849785394035,212.74529168725712 119.40504291816615,212.59273301565554 119.40504291816615,212.4401742957707 119.44849785394035,212.18590965427575 119.4919527892489,212.03335080473335 119.4919527892489,211.82993892976083 119.4919527892489,211.47396794089582 119.62231759633869,211.16884974000277 119.75268240319565,210.91458442423027 119.79613733896986,210.66031897364883 119.92650214582682,210.60946586725186 120.3610515021719,210.5586127556162 120.49141630879603,210.5077596384508 120.83905579405837,210.5077596384508 121.05633047199808,210.5586127556162 121.18669527885504,210.60946586725186 121.44742489256896,210.45690651601763 121.53433476365171,210.35520025485312 121.6646995707415,210.25349397206446 121.83851931337267,210.15178766773897 121.9688841199968,210.05008134181844 122.09924892662093,209.89752181246877 122.18615879816934,209.7449622346321 122.44688841188326,209.59240260822116 122.62070815451443,209.4906961634988 122.75107296113856,209.4398429331195 122.88143776799552,209.38898969741422 122.96834763954394,209.3381364561792 123.14216738170944,209.28728320961818 123.2725321885664,209.1855767001689 123.53326180251315,209.03301689584623 123.66362660937011,208.88045704268734 123.83744635176845,208.7787504470325 124.14163090102375,208.67704382989905 124.31545064365491,208.62619051308138 124.53272532182746,208.57533719105413 124.70654506399296,208.57533719105413 124.92381974239834,208.52448386343895 125.09763948479667,208.52448386343895 125.44527896982618,208.37192384863738 125.61909871222451,208.32107049942715 125.79291845485568,208.27021714503644 125.96673819725402,208.219363785116 126.14055793988518,208.16851041984046 126.31437768205069,208.1176570491225 126.53165236045606,208.06680367307854 127.14002145919949,207.9142435125832 127.44420600845478,207.76168330342625 127.79184549348429,207.65997647031327 128.44366952753626,207.4565627394768 128.74785407725722,207.3548558417533 129.0520386265125,207.30400238471339 129.83422746765427,207.20229545448092 130.0080472100526,207.25314892234746 130.31223175954074,207.20229545448092 130.5729613734875,207.20229545448092 131.13787553622387,207.04973501883796 131.442060085712,206.9480280347052 131.65933476388454,206.8971745345625 131.92006437736563,206.8971745345625 132.18079399131238,206.8463210289483 132.35461373394355,206.7954675180954 132.96298283245414,206.59205342034693 133.1802575106267,206.4394927903195 133.3975321885664,206.3886392362474 133.65826180228032,206.28693211186328 133.8755364806857,206.28693211186328 134.65772532182746,206.0835177983099 134.78809012868442,206.03266420660657 134.91845493554138,205.98181060925708 135.00536480685696,205.98181060925708 135.1791845492553,205.9309570065525 135.396459227195,205.880103398551 135.57027896982618,205.82924978499068 135.70064377668314,205.77839616622077 136.04828326171264,205.72754254197935 136.1786480685696,205.72754254197935 136.35246781096794,205.6766889122955 136.5262875535991,205.6766889122955 136.65665236045606,205.62583527731476 136.83047210262157,205.5749816368043 137.04774678102694,205.52412799102603 137.35193133028224,205.42242068325868 137.5257510729134,205.32071335375076 137.65611587977037,205.32071335375076 137.78648068662733,205.26985968105146 138.00375536456704,205.1681523192674 138.1775751071982,205.11729863006622 138.35139484959655,204.96473753088503 138.65557939908467,204.81217638286762 138.829399141483,204.7104689241678 139.09012875519693,204.7104689241678 139.30740343336947,204.65961518650874 139.52467811154202,204.65961518650874 139.8723175963387,204.65961518650874 140.04613733896986,204.65961518650874 140.2199570813682,204.65961518650874 140.43723175977357,204.65961518650874 140.61105150193907,204.608761443611 140.871781115653,204.608761443611 141.04560085828416,204.608761443611 141.30633047176525,204.55790769524174 141.56706008547917,204.4053464178578 141.74087982811034,204.3544926479808 141.9146995707415,204.20193130581174 142.2188841199968,203.99851610756014 142.5230686692521,204.0493699151848 142.8707081542816,203.94766229443485 143.69635193119757,203.84595465206075 143.9570815449115,203.84595465206075 144.39163090102375,203.74424698812072 145.04345493530855,203.54083159548463 145.6518240342848,203.18485445075203 146.04291845462285,202.8797309733054 146.82510729599744,202.57460730179446 147.04238197393715,202.47289936812012 147.21620171656832,202.42204539309023 147.47693133051507,202.42204539309023 147.65075107268058,202.37119141276344 147.86802575085312,202.37119141276344 148.08530042902566,202.32033742713975 148.47639484959655,202.26948343586992 148.65021459199488,202.26948343586992 148.82403433462605,202.26948343586992 149.12821888411418,202.2186294394778 149.6062231757678,202.06606741741416 149.73658798262477,202.06606741741416 149.9538626607973,202.06606741741416 150.34495708113536,201.96435937591013 150.51877682376653,201.86265131260734 150.6056866950821,201.81179727296694 151.51824034331366,201.65923512156587 151.7355150214862,201.55752699362347 152.43079399131238,201.45581884408602 152.60461373371072,201.45581884408602 152.90879828319885,201.35411067298264 153.0391630900558,201.30325657938374 153.16952789667994,201.2015483759169 153.29989270376973,201.2015483759169 153.6909871243406,201.15069426601985 153.86480686673895,201.15069426601985 154.0386266093701,201.15069426601985 154.3428111586254,200.9981319042272 154.47317596548237,200.9981319042272 154.64699570811354,200.94727777285152 154.82081545027904,200.84556949371472 154.9946351929102,200.79471534615732 155.29881974239834,200.54044452722883 155.60300429165363,200.43873616191559 155.7768240342848,200.3370277749491 155.99409871245734,200.3370277749491 156.1244635193143,200.2353193666204 156.51555793988518,200.1336109363765 156.7328326178249,200.1336109363765 156.90665236045606,200.08275671326555 157.03701716731302,200.0319024846831 157.21083690971136,200.0319024846831 157.4281115878839,199.98104825086193 157.55847639474086,199.98104825086193 157.94957081531174,199.93019401154015 158.34066523588262,199.87933976692148 158.68830472091213,199.87933976692148 158.99248927016743,199.82848551671486 159.12285407725722,199.77763126112404 159.29667381942272,199.72677700029453 159.4704935620539,199.6759227338771 159.60085836914368,199.6759227338771 159.77467811130919,199.62506846227916 159.99195278948173,199.52335990266874 160.1223175963387,199.47250561474357 160.5134120171424,199.52335990266874 160.86105150193907,199.6759227338771 161.121781115653,200.08275671326555 161.25214592250995,200.2353193666204 161.38251072959974,200.43873616191559 161.42596566514112,200.64215287103434 161.5128755364567,200.7438611931866 161.64324034308083,200.84556949371472 161.68669527885504,200.94727777285152 161.77360515017062,201.09984015085502 161.90396995679475,201.35411067298264 162.1212446349673,201.60838106035953 162.29506437759846,201.86265131260734 162.51233905553818,202.2186294394778 162.85997854056768,202.93058489979012 163.1207081542816,203.23570834464044 163.29452789691277,203.48997773390147 163.38143776799552,203.64253930267296 163.42489270376973,203.84595465206075 163.5552575106267,204.1510775142524 163.5987124464009,204.25278509184136 163.8159871243406,204.55790769524174 163.98980686697178,204.7104689241678 164.07671673805453,204.81217638286762 164.25053648045287,205.01559123612242 164.38090128754266,205.21900600279332 164.554721029941,205.62583527731476 164.59817596548237,205.82924978499068 164.72854077233933,206.03266420660657 164.9023605149705,206.3886392362474 164.98927038605325,206.6429069529113 165.03272532182746,206.8463210289483 165.1196351929102,207.04973501883796 165.16309012868442,207.20229545448092 165.24999999976717,207.3548558417533 165.38036480662413,207.50741618030588 165.5541845492553,207.9142435125832 165.64109442057088,208.1176570491225 165.72800429165363,208.27021714503644 165.81491416296922,208.42277719225967 165.9018240342848,208.57533719105413 165.945278970059,208.72789714115788 166.1190987122245,209.0838701693283 166.16255364799872,209.28728320961818 166.2060085835401,209.4398429331195 166.37982832593843,209.59240260822116 166.42328326171264,209.7449622346321 166.46673819725402,209.84666862522135 166.51019313302822,209.94837499439018 166.59710300411098,210.05008134181844 166.68401287542656,210.2026408225065 166.81437768228352,210.35520025485312 166.98819742468186,210.5586127556162 167.20547210262157,210.81287826018524 167.29238197393715,211.01629056679667 167.29238197393715,211.06714362985804 167.33583690971136,211.3722618955071 167.46620171656832,211.57567396457307 167.5531115878839,211.62652696840814 167.59656652342528,211.779085947579 167.8572961371392,212.1350567098707 168.0745708150789,212.38932137819938 168.2049356221687,212.59273301565554 168.2918454934843,212.74529168725712 168.42221030034125,212.8978503101971 168.50912017165683,213.10126173202298 168.59603004273959,213.304673067556 168.682939914288,213.50808431667974 168.81330472091213,213.8132010284753 168.8567596564535,213.91490655593225 168.9002145922277,214.11831754617742 169.11748927016743,214.42343386964058 169.204399141483,214.57599195849616 169.2913090127986,214.72854999892297 169.37821888411418,214.88110799051356 169.42167381965555,215.03366593385 169.50858369097114,215.1862238284957 169.6389484978281,215.3896342793596 169.76931330468506,215.7456023604318 169.8562231757678,215.84730747775757 169.9431330470834,216.0507176479441 170.03004291839898,216.20327521889703 170.11695278971456,216.35583274145029 170.24731759657152,216.55924269577372 170.33422746765427,216.7626525639498 170.55150214582682,217.06776720416383 170.6384120171424,217.22032445145305 170.72532188822515,217.3728816503135 170.76877682376653,217.52543880042504 170.8556866950821,217.62714354030322 170.9425965663977,217.77970060970983 171.02950643771328,217.93225763025112 171.11641630879603,218.08481460253824 171.24678111588582,218.1865192236437 171.37714592274278,218.54248522775015 171.46405579382554,218.64418975185254 171.5944206006825,218.79674649739172 171.72478540753946,218.94930319438572 171.81169527885504,219.05100763216615 171.942060085712,219.20356424839702 171.9855150214862,219.30526863210252 172.1593347636517,219.4069729942421 172.1593347636517,219.30526863210252 172.3766094420571,219.05100763216615 172.5504291842226,218.8984509674774 173.28916308982298,218.44078068216913 174.11480686673895,217.57629117302713 174.37553648045287,217.27117685656413 174.59281115885824,217.06776720416383 175.11427038605325,216.6100951709377 175.54881974239834,216.254127731896 175.7226394850295,216.1015701770957 175.9833690985106,215.9490125736629 176.24409871245734,215.7456023604318 176.37446351908147,215.64389722121996 176.54828326171264,215.4913394722971 176.6786480685696,215.3896342793596 176.80901287542656,215.28792906465242 176.93937768228352,215.1862238284957 177.06974248914048,215.0845185708895 177.28701716731302,214.7794026681804 177.37392703839578,214.62684464396443 177.50429184525274,214.4742865714652 177.59120171656832,214.32172845010064 177.76502145896666,214.11831754617742 177.89538626582362,213.91490655593225 178.15611587977037,213.6097899088054 178.37339055771008,213.45723151246784 178.50375536456704,213.40637870287173 178.72103004273959,213.2029674105288 178.85139484959655,213.3555258878332 178.72103004273959,213.45723151246784 178.80793991405517,213.55893711539102 178.89484978537075,213.6097899088054 179.0686695277691,213.66064269689377 179.24248927016743,213.71149547956884 179.37285407702439,213.71149547956884 179.45976394833997,213.71149547956884" stroke="#4dd2ff" stroke-linecap="round" stroke-linejoin="round" stroke-width="0.5"><title>2021-04-28 5.8km</title></polyline></svg>