<?xml version="1.0" encoding="utf-8" ?>
<svg baseProfile="full" height="300mm" version="1.1" viewBox="0,0,200,300" width="200mm" xmlns="http://www.w3.org/2000/svg" xmlns:ev="http://www.w3.org/2001/xml-events" xmlns:xlink="http://www.w3.org/1999/xlink"><defs /><rect fill="#222222" height="300" width="200" x="0" y="0" /><text fill="#FFFFFF" style="font-size:12px; font-family:Arial; font-weight:bold;" x="10" y="20">Over 4km Runs</text><text fill="#FFFFFF" style="font-size:4px; font-family:Arial" x="10" y="280">ATHLETE</text><text fill="#FFFFFF" style="font-size:9px; font-family:Arial" x="10" y="290">Suzanne Huang</text><text fill="#FFFFFF" style="font-size:4px; font-family:Arial" x="120" y="280">STATISTICS</text><text fill="#FFFFFF" style="font-size:3px; font-family:Arial" x="120" y="285">Number: 3</text><text fill="#FFFFFF" style="font-size:3px; font-family:Arial" x="120" y="290">Weekly: 1.0</text><text fill="#FFFFFF" style="font-size:3px; font-family:Arial" x="141" y="285">Total: 14.1 km</text><text fill="#FFFFFF" style="font-size:3px; font-family:Arial" x="141" y="290">Avg: 4.7 km</text><text fill="#FFFFFF" style="font-size:3px; font-family:Arial" x="167" y="285">Min: 4.3 km</text><text fill="#FFFFFF" style="font-size:3px; font-family:Arial" x="167" y="290">Max: 5.1 km</text><polyline fill="none" points="73.55908896960318,70.09888337925076 73.55908896960318,61.32816689182073 73.55908896960318,57.20076571730897 74.00629593245685,52.557435433380306 69.98143326304853,42.238908669911325 54.776396518573165,36.0477826660499 48.06829207018018,38.11149216396734 42.701808512210846,42.238908669911325 37.782531917095184,53.58928696997464 37.33532495237887,58.232616322580725 36.888117991387844,62.875941476318985 36.44091102667153,69.06703515769914 36.44091102667153,72.1625792006962 35.99370406381786,75.25812137825415 36.44091102667153,82.99696866422892 36.44091102667153,87.1243491191417 36.888117991387844,90.21988228429109 37.782531917095184,97.44278575060889 37.782531917095184,100.02239167084917 38.676945842802525,102.60199629701674 40.46577369607985,107.24528135824949 42.701808512210846,111.37264233687893 47.62108510546386,113.43632158264518 54.329189555719495,114.98408047389239 60.59008703939617,114.46816089516506 66.85098452307284,111.888562226668 71.32305415533483,107.24528135824949 74.45350289717317,96.4109430196695 74.90070986188948,93.83133528521284 75.34791682474315,91.25172625808045 74.45350289717317,83.51289140293375 74.00629593245685,76.80589176900685 74.00629593245685,74.22627419233322 74.00629593245685,69.58295929385349 74.90070986188948,61.84409180609509 74.45350289717317,58.748541546054184 74.45350289717317,56.16891490481794 73.11188200861216,48.43002721527591 70.87584719248116,41.207054855301976 65.06215667165816,36.56371011864394 61.93170792795718,36.0477826660499 55.22360347956419,34.5 44.93784332834184,38.11149216396734 40.91298065893352,42.75483550084755 36.44091102667153,50.493731738999486 35.99370406381786,53.58928696997464 35.09929013811052,58.232616322580725 34.6520831733942,64.93964020069689 35.09929013811052,68.03518672846258 35.09929013811052,71.64665532298386 35.09929013811052,74.74219781160355 35.09929013811052,81.44920013938099 35.546497102826834,84.54473672388121 35.546497102826834,88.67211593547836 35.99370406381786,95.37910008290783 36.44091102667153,98.99054945865646 39.12415280751884,105.6975201391615 43.149015475064516,110.85672239493579 45.83225725404918,112.40448206337169 52.0931547395885,114.46816089516506 58.80125918611884,115.5 65.06215667165816,112.9204018493183 70.42864022776484,109.3089622631669 73.55908896960318,104.14975845022127 74.90070986188948,96.9268644102849 74.90070986188948,93.31541358400136 74.45350289717317,90.73580429609865 74.45350289717317,87.1243491191417 75.34791682474315,79.90143114933744 74.90070986188948,76.80589176900685 74.45350289717317,73.19442679965869 74.45350289717317,70.61480741202831 74.45350289717317,64.42371559655294 74.45350289717317,60.81224192492664 74.45350289717317,58.232616322580725 74.45350289717317,55.652989422902465 73.11188200861216,49.461879581213 72.21746808290482,46.36632186220959 69.08701933920383,40.69112787023187 63.72053577937186,37.59556486736983 61.03729400224984,37.079637518618256 57.9068452604115,36.56371011864394 49.85711992159486,37.59556486736983 47.17387814447284,38.627419407479465 44.043429400771856,40.69112787023187 40.01856673322618,44.302615681663156 38.676945842802525,47.39817464211956 37.782531917095184,49.97780568525195 35.99370406381786,55.652989422902465 35.546497102826834,58.232616322580725 35.546497102826834,61.32816689182073 35.09929013811052,64.93964020069689 35.546497102826834,67.00333809293807 35.09929013811052,74.22627419233322 35.546497102826834,77.83773843524978 35.546497102826834,81.44920013938099 35.546497102826834,84.02881408808753 35.99370406381786,90.73580429609865 35.99370406381786,93.83133528521284 36.44091102667153,96.4109430196695 38.676945842802525,103.63383778324351 40.01856673322618,106.21344059705734 43.149015475064516,109.82488235877827 45.38505029119551,112.40448206337169 49.85711992159486,114.46816089516506 52.0931547395885,114.98408047389239 55.670810444280505,114.98408047389239 61.93170792795718,114.46816089516506 65.95657059550285,112.40448206337169 68.63981237635016,110.85672239493579 71.7702611181885,105.18159962724894 72.66467504575849,98.99054945865646 73.55908896960318,95.37910008290783 74.45350289717317,91.76764816697687 74.90070986188948,89.18803810467944 75.34791682474315,82.48104587569833 74.90070986188948,78.35366169176996 74.90070986188948,75.25812137825415 74.45350289717317,68.55111096939072 74.45350289717317,64.93964020069689 74.45350289717317,62.36001666728407 74.45350289717317,56.684840337373316 74.00629593245685,53.58928696997464 73.55908896960318,51.00965774152428 71.7702611181885,44.81854230398312 67.74539844878018,40.17520083114505 64.16774274408817,38.627419407479465 57.9068452604115,37.079637518618256 50.30432688631117,38.11149216396734 44.043429400771856,40.69112787023187 39.12415280751884,45.85039539495483 35.99370406381786,52.557435433380306 35.09929013811052,59.264466719236225 35.09929013811052,62.36001666728407 35.546497102826834,66.48741369647905 35.546497102826834,74.22627419233322 35.99370406381786,78.35366169176996 35.99370406381786,82.48104587569833 36.44091102667153,89.18803810467944 36.44091102667153,92.79949183063582 36.888117991387844,96.4109430196695 37.33532495237887,98.474628274329 38.229738879948854,103.63383778324351 42.25460154749453,109.82488235877827 46.72667117975652,113.95224126428366 56.565224369987845,115.5 58.80125918611884,114.98408047389239 63.27332881838083,114.46816089516506 65.50936363451183,112.9204018493183 70.42864022776484,108.27712191548198 72.21746808290482,105.18159962724894 74.45350289717317,99.50647059082985 74.90070986188948,95.8950215773657 75.34791682474315,93.31541358400136 75.34791682474315,90.21988228429109 75.34791682474315,84.02881408808753 75.34791682474315,80.4173541967757 74.90070986188948,77.83773843524978 74.45350289717317,73.71035052230582 74.45350289717317,67.51926243631169 74.90070986188948,63.39186623552814 74.90070986188948,60.81224192492664 74.45350289717317,57.20076571730897 74.00629593245685,50.493731738999486 73.55908896960318,47.39817464211956 70.87584719248116,42.238908669911325 65.95657059550285,38.627419407479465 57.9068452604115,37.079637518618256 53.88198259100318,37.59556486736983 51.19874081015587,38.11149216396734 45.83225725404918,40.17520083114505 42.701808512210846,42.238908669911325 37.782531917095184,46.88224827731028 35.99370406381786,49.97780568525195 34.20487621054053,56.684840337373316 34.20487621054053,59.264466719236225 34.20487621054053,64.93964020069689 34.6520831733942,67.51926243631169 35.09929013811052,71.64665532298386 35.546497102826834,74.22627419233322 36.888117991387844,80.93327719531953 36.888117991387844,83.51289140293375 37.33532495237887,87.1243491191417 36.888117991387844,89.70396021893248 37.33532495237887,95.8950215773657 37.33532495237887,98.99054945865646 37.782531917095184,101.57015460217372 40.01856673322618,107.24528135824949 44.490636363625526,111.37264233687893 51.645947774872184,113.95224126428366 56.118017407134175,114.98408047389239 59.24846614897251,114.98408047389239 64.61494970880449,112.9204018493183 68.63981237635016,110.34080240270123 71.7702611181885,106.21344059705734 73.11188200861216,103.11791706643999 74.90070986188948,96.9268644102849 74.45350289717317,94.34725693706423 74.45350289717317,92.2835700251162 74.45350289717317,88.67211593547836 74.45350289717317,86.0925043169409 74.45350289717317,79.38550804881379 74.45350289717317,76.80589176900685 74.45350289717317,74.74219781160355 74.45350289717317,72.1625792006962 74.45350289717317,65.45556475082412 74.90070986188948,62.36001666728407 74.90070986188948,59.78039183886722 74.45350289717317,55.652989422902465 73.55908896960318,51.00965774152428 72.66467504575849,47.39817464211956 69.5342263020575,42.238908669911325 64.61494970880449,38.627419407479465 58.80125918611884,38.11149216396734 56.118017407134175,38.11149216396734 53.43477562814951,38.627419407479465 50.30432688631117,39.14334660116583 43.59622243978083,42.238908669911325 38.676945842802525,47.39817464211956 36.44091102667153,53.0733612277545 35.09929013811052,57.20076571730897 35.09929013811052,62.36001666728407 35.546497102826834,64.93964020069689 35.09929013811052,69.06703515769914 35.546497102826834,74.22627419233322 36.44091102667153,76.80589176900685 37.33532495237887,84.02881408808753 36.44091102667153,88.15619371458888 35.99370406381786,91.76764816697687 36.888117991387844,96.9268644102849 36.888117991387844,99.50647059082985 37.782531917095184,103.11791706643999 41.36018762178719,108.79304211447015 43.59622243978083,110.34080240270123 48.5154990311712,112.9204018493183 50.75153385102749,113.43632158264518 57.01243133470416,113.95224126428366 59.24846614897251,113.95224126428366 65.06215667165816,112.40448206337169 66.85098452307284,110.85672239493579 70.42864022776484,107.24528135824949 73.55908896960318,101.05423367628828 74.00629593245685,98.474628274329 74.90070986188948,90.73580429609865 73.55908896960318,84.54473672388121 73.11188200861216,81.96512303361669 73.11188200861216,78.35366169176996 73.11188200861216,74.74219781160355 73.55908896960318,68.55111096939072 74.00629593245685,65.97148924926296 74.45350289717317,62.875941476318985 74.00629593245685,55.652989422902465 73.55908896960318,53.0733612277545 73.11188200861216,49.97780568525195 70.42864022776484,42.75483550084755 66.40377755835652,39.14334660116583 59.69567311182618,36.56371011864394 53.88198259100318,37.079637518618256 49.40991296060383,38.11149216396734 38.676945842802525,45.85039539495483 36.888117991387844,49.461879581213 34.6520831733942,56.16891490481794 34.20487621054053,59.78039183886722 34.20487621054053,62.875941476318985 34.6520831733942,68.03518672846258 35.09929013811052,71.64665532298386 35.546497102826834,74.74219781160355 35.99370406381786,77.83773843524978 36.44091102667153,85.06065930565819 35.99370406381786,87.64027144294232 35.546497102826834,90.21988228429109 35.546497102826834,92.79949183063582 35.99370406381786,98.474628274329 36.888117991387844,104.14975845022127 40.01856673322618,109.82488235877827 46.27946421690285,113.95224126428366 48.96270599588752,114.46816089516506 55.22360347956419,114.98408047389239 57.9068452604115,114.98408047389239 63.72053577937186,113.95224126428366 66.40377755835652,111.888562226668 72.21746808290482,105.6975201391615 73.55908896960318,102.0860754745081 75.34791682474315,95.37910008290783 75.34791682474315,92.79949183063582 75.34791682474315,89.18803810467944 75.34791682474315,85.57658183854073 74.90070986188948,78.8695848970674 74.45350289717317,75.25812137825415 75.34791682474315,69.06703515769914 75.34791682474315,65.45556475082412 75.34791682474315,62.875941476318985 75.79512378759682,60.29631690820679 75.34791682474315,54.10521266143769 73.11188200861216,46.88224827731028 65.50936363451183,41.207054855301976 62.37891489081085,40.17520083114505 59.69567311182618,39.65927374130115 52.98756866529584,38.627419407479465 49.85711992159486,39.14334660116583 44.043429400771856,40.69112787023187 39.571359772235155,44.302615681663156 37.782531917095184,46.36632186220959 34.20487621054053,56.16891490481794 33.75766924768686,59.78039183886722 33.75766924768686,63.39186623552814 35.09929013811052,69.58295929385349 35.09929013811052,72.1625792006962 35.99370406381786,75.25812137825415 36.44091102667153,79.38550804881379 36.44091102667153,84.54473672388121 35.546497102826834,88.15619371458888 35.99370406381786,94.34725693706423 36.44091102667153,97.95870703877881 38.229738879948854,103.63383778324351 40.01856673322618,106.72936100373045 44.043429400771856,110.85672239493579 49.85711992159486,113.95224126428366 53.43477562814951,114.46816089516506 59.69567311182618,114.98408047389239 62.37891489081085,114.46816089516506 68.1926054134965,111.888562226668 69.98143326304853,110.85672239493579 74.00629593245685,105.6975201391615 74.90070986188948,102.0860754745081 76.24233075231314,96.4109430196695 76.24233075231314,93.31541358400136 75.79512378759682,89.18803810467944 75.79512378759682,86.60842674365267 74.90070986188948,78.8695848970674 74.90070986188948,75.77404489414766 74.90070986188948,72.1625792006962 75.34791682474315,64.93964020069689 75.34791682474315,62.36001666728407 74.45350289717317,56.16891490481794 73.55908896960318,52.557435433380306 73.11188200861216,49.97780568525195 68.1926054134965,42.238908669911325 62.37891489081085,39.14334660116583 55.670810444280505,38.627419407479465 50.30432688631117,39.14334660116583 46.72667117975652,40.69112787023187 44.490636363625526,41.72298178821802 40.46577369607985,44.81854230398312 38.676945842802525,46.88224827731028 35.546497102826834,51.00965774152428 34.6520831733942,57.20076571730897 33.75766924768686,62.36001666728407 33.75766924768686,67.51926243631169 34.6520831733942,70.61480741202831 35.546497102826834,72.1625792006962 36.44091102667153,74.74219781160355 37.782531917095184,82.99696866422892 36.888117991387844,86.60842674365267 36.44091102667153,89.70396021893248 36.44091102667153,92.2835700251162 35.99370406381786,98.99054945865646 36.888117991387844,102.0860754745081 37.782531917095184,104.66567906551063 42.701808512210846,110.85672239493579 48.5154990311712,113.43632158264518 55.22360347956419,113.95224126428366 59.24846614897251,113.95224126428366 69.98143326304853,108.27712191548198 73.11188200861216,97.44278575060889 73.11188200861216,92.79949183063582 73.11188200861216,89.70396021893248 72.66467504575849,82.99696866422892 72.66467504575849,80.4173541967757 72.66467504575849,76.28996835649014 72.66467504575849,73.71035052230582 73.11188200861216,65.45556475082412 73.55908896960318,61.32816689182073 73.55908896960318,57.20076571730897 71.7702611181885,49.461879581213 64.16774274408817,41.72298178821802 60.59008703939617,40.69112787023187 52.98756866529584,39.65927374130115 46.27946421690285,41.207054855301976 40.46577369607985,45.334468874614686 36.44091102667153,55.652989422902465 36.44091102667153,58.232616322580725 35.99370406381786,62.36001666728407 35.99370406381786,68.55111096939072 36.44091102667153,72.67850302578881 37.33532495237887,76.80589176900685 36.888117991387844,85.57658183854073 36.44091102667153,89.18803810467944 36.44091102667153,93.31541358400136 37.33532495237887,100.53831270011142 40.91298065893352,107.7612016624771 51.19874081015587,114.46816089516506 72.21746808290482,102.0860754745081 73.55908896960318,97.44278575060889 74.45350289717317,89.70396021893248 74.90070986188948,86.60842674365267" stroke="#4dd2ff" stroke-linecap="round" stroke-linejoin="round" stroke-width="0.5"><title>2017-10-13 4.3km</title></polyline><polyline fill="none" points="160.91461391933262,66.36014554556459 160.446537040174,63.12013936415315 160.446537040174,59.88013123255223 160.91461391933262,56.640121147502214 160.446537040174,48.00008471403271 157.16999887861311,42.600054894108325 151.55307631753385,37.200019653420895 140.78730808012187,34.5 135.1703855227679,35.040004038251936 129.08538608066738,38.820030794944614 125.34077104181051,43.68006129330024 122.53230976313353,50.70009759161621 122.06423288397491,53.94011125341058 122.06423288397491,60.96013416023925 122.06423288397491,64.20014164177701 122.53230976313353,66.90014638658613 123.46846352517605,69.60014977445826 123.93654040247202,77.16015205113217 123.46846352517605,80.40014977287501 123.00038664415479,83.10014638630673 122.06423288397491,86.88013936532661 122.06423288397491,93.90011927718297 122.06423288397491,97.68010466499254 123.93654040247202,103.0800791834481 124.8726941626519,105.24006747175008 130.0215398427099,110.64003440085799 137.04269303940237,114.42000802373514 143.1276924815029,114.96000403817743 145.93615376017988,114.42000802373514 152.0211531985551,112.8000196525827 156.7019219994545,109.56004144670442 160.91461391933262,102.54008197505027 161.38269079849124,99.84009512327611 162.31884455680847,97.14010691503063 163.72307519987226,93.90011927718297 166.99961335770786,87.96013686992228 166.99961335770786,87.96013686992228 166.99961335770786,88.50013554049656 166.5315364766866,88.50013554049656 166.06345959752798,89.04013415891677 166.5315364766866,88.50013554049656 166.5315364766866,88.50013554049656 166.5315364766866,88.50013554049656 166.5315364766866,88.50013554049656 166.06345959752798,87.96013686992228 164.19115207903087,86.88013936532661 163.254998318851,82.56014717044309 162.78692143782973,79.32015075022355 162.31884455680847,75.54015245800838 162.31884455680847,71.76015150919557 161.85076767764986,64.20014164177701 161.85076767764986,61.50013554375619 161.85076767764986,57.720124726649374 162.31884455680847,55.020115374121815 161.38269079849124,48.00008471403271 158.5742295179516,42.060051614418626 150.148845680058,35.040004038251936 142.65961560048163,34.5 139.851154319942,34.5 132.83000112138689,36.12001195596531 127.68115544319153,40.44004144938663 125.34077104181051,43.14005812071264 123.00038664415479,48.54008739767596 123.00038664415479,52.320104665122926 123.00038664415479,54.48011334147304 121.59615600295365,60.420132723171264 120.66000224277377,62.580138145014644 121.12807912193239,67.44014717219397 121.12807912193239,72.84015205223113 121.12807912193239,76.62015224155039 121.12807912193239,79.32015075022355 121.59615600295365,83.10014638630673 122.06423288397491,87.96013686992228 122.53230976313353,91.74012643145397 123.00038664415479,95.52011333918199 123.00038664415479,97.68010466499254 125.34077104181051,104.70007048128173 128.14923232235014,109.56004144670442 134.23423176258802,112.8000196525827 137.51076992228627,113.34001583140343 143.1276924815029,114.42000802373514 151.08499944023788,112.8000196525827 156.7019219994545,109.02004489023238 158.10615263693035,107.40005489392206 161.85076767764986,102.0000847117044 162.78692143782973,98.22010236000642 163.72307519987226,94.44011735124514 164.19115207903087,89.04013415891677 164.19115207903087,86.3401405303739 162.31884455680847,80.94014920433983 162.31884455680847,75.00015248451382 162.31884455680847,72.30015180725604 162.31884455680847,69.60014977445826 162.31884455680847,66.36014554556459 163.254998318851,59.88013123255223 163.254998318851,53.94011125341058 162.31884455680847,48.00008471403271 161.38269079849124,45.300070482771844 157.63807575963438,40.44004144938663 154.82961447909474,37.740023421123624 149.21269191987813,35.58000802388415 145.93615376017988,35.040004038251936 138.4469236806035,35.040004038251936 135.63846240006387,36.12001195596531 127.68115544319153,41.52004828071222 125.80884792283177,44.22006441047415 123.46846352517605,50.16009512450546 123.00038664415479,52.86010691616684 123.00038664415479,56.10011927643791 122.53230976313353,58.80012808833271 122.53230976313353,64.74014269933105 123.00038664415479,66.90014638658613 123.00038664415479,69.60014977445826 123.00038664415479,72.84015205223113 122.53230976313353,79.32015075022355 123.00038664415479,82.56014717044309 123.46846352517605,85.26014269841835 123.46846352517605,89.04013415891677 123.00038664415479,94.98011537175626 123.93654040247202,100.38009260082617 126.27692480571568,105.78006440820172 127.68115544319153,107.94005161430687 133.2980780005455,112.26002342114225 135.63846240006387,113.34001583140343 142.65961560048163,114.42000802373514 145.0,114.42000802373514 148.7446150407195,113.88001195527613 152.48923008143902,113.34001583140343 157.63807575963438,110.64003440085799 161.38269079849124,104.70007048128173 162.78692143782973,99.30009758891538 162.78692143782973,96.60010911058635 162.78692143782973,93.3601211477071 163.254998318851,90.6601296858862 163.254998318851,87.96013686992228 163.254998318851,82.0201479033567 162.31884455680847,78.24015150917694 162.31884455680847,73.38015224086121 162.78692143782973,71.22015115665272 162.31884455680847,68.52014858229086 162.31884455680847,65.28014370286837 162.78692143782973,62.04013687139377 161.38269079849124,56.640121147502214 161.38269079849124,54.48011334147304 160.446537040174,51.240100004244596 159.97846015915275,48.00008471403271 158.10615263693035,42.600054894108325 153.89346071891487,37.740023421123624 148.27653815969825,34.5 145.93615376017988,34.5 139.38307744264603,34.5 133.2980780005455,36.12001195596531 130.95769360288978,37.740023421123624 125.34077104181051,43.14005812071264 124.40461728349328,45.300070482771844 123.93654040247202,48.00008471403271 123.46846352517605,53.94011125341058 123.46846352517605,56.640121147502214 123.00038664415479,59.340129686519504 123.00038664415479,62.04013687139377 123.00038664415479,69.06014920584857 123.46846352517605,71.76015150919557 123.00038664415479,77.16015205113217 122.53230976313353,83.10014638630673 123.00038664415479,86.3401405303739 123.00038664415479,89.04013415891677 123.00038664415479,91.74012643145397 123.93654040247202,100.38009260082617 124.8726941626519,102.54008197505027 131.4257704820484,110.64003440085799 134.70230864174664,111.72002713568509 141.7234618421644,113.88001195527613 144.53192312084138,113.88001195527613 152.48923008143902,112.8000196525827 154.82961447909474,111.18003079481423 159.04230639897287,107.40005489392206 160.446537040174,104.70007048128173 161.85076767764986,99.30009758891538 162.78692143782973,96.06011125259101 162.78692143782973,89.04013415891677 162.31884455680847,85.80014164093882 161.85076767764986,83.6401455453597 161.85076767764986,81.4801485799253 161.38269079849124,78.78015115577728 161.38269079849124,72.84015205223113 161.85076767764986,70.14015028905123 162.31884455680847,66.90014638658613 162.31884455680847,62.04013687139377 161.85076767764986,59.88013123255223 161.38269079849124,57.720124726649374 161.38269079849124,55.56011735321954 161.85076767764986,53.400109111797065 159.51038327813148,46.9200791856274 155.76576823741198,40.980044891126454 153.42538383975625,38.820030794944614 146.87230752035975,35.58000802388415 140.31923120096326,35.040004038251936 136.5746161621064,35.58000802388415 130.95769360288978,38.280027135740966 127.21307856403291,42.060051614418626 125.34077104181051,44.22006441047415 123.00038664415479,49.080090027302504 122.53230976313353,55.020115374121815 122.53230976313353,57.720124726649374 122.53230976313353,60.420132723171264 122.53230976313353,63.12013936415315 122.53230976313353,65.28014370286837 123.00038664415479,71.22015115665272 123.46846352517605,73.92015237733722 123.00038664415479,76.62015224155039 122.53230976313353,79.86015028972179 123.00038664415479,82.56014717044309 123.46846352517605,84.72014370094985 123.46846352517605,89.58013272192329 123.93654040247202,92.28012472577393 123.93654040247202,97.68010466499254 125.34077104181051,100.92009002668783 127.21307856403291,106.32006129110232 129.08538608066738,108.48004827974364 133.2980780005455,111.72002713568509 135.1703855227679,112.8000196525827 141.25538496114314,114.42000802373514 145.0,113.88001195527613 147.80846128053963,113.88001195527613 155.76576823741198,110.10003795102239 157.63807575963438,107.94005161430687 159.04230639897287,106.32006129110232 160.91461391933262,102.0000847117044 161.38269079849124,99.84009512327611 161.85076767764986,93.90011927718297 160.91461391933262,90.6601296858862 161.85076767764986,86.3401405303739 162.31884455680847,84.18014465039596 162.31884455680847,77.70015180576593 162.31884455680847,73.92015237733722 162.31884455680847,70.14015028905123 162.31884455680847,66.90014638658613 162.31884455680847,62.04013687139377 161.85076767764986,58.80012808833271 161.85076767764986,56.10011927643791 161.38269079849124,53.94011125341058 160.91461391933262,49.080090027302504 158.10615263693035,44.22006441047415 153.42538383975625,39.360034401062876 147.80846128053963,36.12001195596531 141.25538496114314,35.040004038251936 134.70230864174664,36.12001195596531 131.4257704820484,37.200019653420895 125.34077104181051,42.060051614418626 124.40461728349328,44.22006441047415 123.00038664415479,50.16009512450546 122.53230976313353,52.320104665122926 122.53230976313353,56.10011927643791 123.00038664415479,61.50013554375619 123.46846352517605,64.74014269933105 123.46846352517605,67.98014790471643 123.93654040247202,70.68015075009316 123.93654040247202,73.92015237733722 123.46846352517605,80.40014977287501 124.8726941626519,95.52011333918199 124.8726941626519,98.76010000286624 125.80884792283177,103.62007633643225 129.08538608066738,107.94005161430687 135.1703855227679,112.26002342114225 142.65961560048163,113.34001583140343 148.7446150407195,113.88001195527613 154.36153759807348,112.26002342114225 158.5742295179516,109.02004489023238 161.38269079849124,103.0800791834481 161.85076767764986,100.38009260082617 161.85076767764986,97.68010466499254 161.85076767764986,91.20012808591127 162.31884455680847,87.96013686992228 162.31884455680847,85.26014269841835 161.85076767764986,82.0201479033567 161.85076767764986,79.32015075022355 160.91461391933262,75.00015248451382 161.85076767764986,71.22015115665272 161.85076767764986,68.52014858229086 161.85076767764986,66.36014554556459 161.85076767764986,64.20014164177701 162.31884455680847,58.26012643519789 161.85076767764986,54.48011334147304 161.85076767764986,51.78010236239061 161.38269079849124,49.080090027302504 159.51038327813148,44.76006747316569 156.7019219994545,42.600054894108325 155.297691360116,40.44004144938663 147.34038439951837,35.040004038251936 144.06384623982012,34.5 137.04269303940237,35.040004038251936 130.0215398427099,38.280027135740966 127.68115544319153,40.980044891126454 123.46846352517605,45.84007343649864 123.00038664415479,48.00008471403271 122.53230976313353,54.48011334147304 122.53230976313353,57.720124726649374 123.00038664415479,59.88013123255223 123.46846352517605,63.660140530671924 123.93654040247202,68.52014858229086 123.93654040247202,71.22015115665272 123.46846352517605,73.92015237733722 123.00038664415479,77.16015205113217 123.00038664415479,79.32015075022355 122.53230976313353,83.6401455453597 122.53230976313353,86.88013936532661 122.53230976313353,90.12013123137876 122.53230976313353,92.82012296328321 123.46846352517605,98.22010236000642 124.40461728349328,100.92009002668783 127.21307856403291,106.86005812091753 131.4257704820484,110.64003440085799 137.51076992228627,112.8000196525827 139.851154319942,112.8000196525827 143.1276924815029,112.8000196525827 146.87230752035975,113.34001583140343 152.0211531985551,113.34001583140343 157.16999887861311,110.10003795102239 160.91461391933262,105.24006747175008 162.31884455680847,99.84009512327611 162.31884455680847,94.44011735124514 162.31884455680847,91.74012643145397 162.31884455680847,88.50013554049656 161.85076767764986,85.26014269841835 161.38269079849124,80.40014977287501 161.85076767764986,77.70015180576593 161.85076767764986,74.46015245793387 161.85076767764986,71.76015150919557 161.38269079849124,69.06014920584857 161.38269079849124,62.04013687139377 161.38269079849124,59.340129686519504 160.91461391933262,55.56011735321954 160.446537040174,51.78010236239061 158.5742295179516,45.84007343649864 150.148845680058,37.740023421123624 147.80846128053963,36.66001583216712 142.19153872318566,35.040004038251936 135.63846240006387,36.66001583216712 130.0215398427099,39.360034401062876 125.80884792283177,44.22006441047415 123.46846352517605,50.16009512450546 123.00038664415479,52.86010691616684 122.53230976313353,56.640121147502214 123.00038664415479,63.12013936415315 123.46846352517605,66.36014554556459 123.46846352517605,70.14015028905123 123.46846352517605,72.84015205223113 123.46846352517605,80.40014977287501 123.46846352517605,84.18014465039596 123.93654040247202,86.3401405303739 123.93654040247202,90.12013123137876 123.93654040247202,96.06011125259101 124.8726941626519,99.30009758891538 127.21307856403291,105.24006747175008 135.1703855227679,111.72002713568509 142.65961560048163,113.34001583140343 145.46807688102126,113.34001583140343 152.95730696059763,111.72002713568509 158.10615263693035,108.48004827974364 159.97846015915275,105.78006440820172 161.85076767764986,99.30009758891538 161.85076767764986,92.28012472577393 161.38269079849124,89.58013272192329 161.85076767764986,86.3401405303739 162.31884455680847,82.56014717044309 161.85076767764986,76.62015224155039 161.38269079849124,72.30015180725604 161.38269079849124,69.60014977445826 161.38269079849124,65.82014465145767 161.38269079849124,59.340129686519504 160.91461391933262,55.020115374121815 160.446537040174,52.320104665122926 160.446537040174,49.080090027302504 157.16999887861311,41.52004828071222 152.48923008143902,37.200019653420895 145.46807688102126,35.040004038251936 139.851154319942,35.040004038251936 137.04269303940237,35.58000802388415 131.89384736306965,38.280027135740966 127.21307856403291,42.060051614418626 123.93654040247202,47.46008197683841 123.00038664415479,53.400109111797065 123.46846352517605,56.640121147502214 123.00038664415479,59.88013123255223 123.00038664415479,62.04013687139377 123.46846352517605,69.06014920584857 123.93654040247202,71.22015115665272 123.93654040247202,73.92015237733722 123.46846352517605,77.16015205113217 123.46846352517605,84.72014370094985 123.46846352517605,87.42013814346865 123.46846352517605,94.44011735124514 123.93654040247202,97.68010466499254 124.8726941626519,100.92009002668783 127.68115544319153,106.86005812091753 132.36192424222827,111.72002713568509 134.70230864174664,112.26002342114225 141.7234618421644,115.5 147.80846128053963,114.42000802373514 150.148845680058,113.34001583140343 153.42538383975625,111.72002713568509 158.5742295179516,106.86005812091753 160.91461391933262,100.38009260082617 161.38269079849124,97.68010466499254 161.85076767764986,94.44011735124514 162.31884455680847,91.20012808591127 162.78692143782973,85.26014269841835 162.78692143782973,82.56014717044309 162.31884455680847,79.32015075022355 161.85076767764986,76.08015237748623 162.31884455680847,70.14015028905123 162.31884455680847,66.90014638658613 162.31884455680847,63.12013936415315 162.31884455680847,60.420132723171264 162.31884455680847,57.720124726649374 161.85076767764986,52.86010691616684 159.97846015915275,45.84007343649864 158.10615263693035,43.68006129330024 153.42538383975625,38.820030794944614 147.34038439951837,36.12001195596531 144.06384623982012,35.58000802388415 137.51076992228627,35.040004038251936 132.36192424222827,37.200019653420895 130.0215398427099,38.820030794944614 127.68115544319153,40.980044891126454 123.93654040247202,46.9200791856274 123.00038664415479,53.400109111797065 123.00038664415479,56.640121147502214 123.00038664415479,59.340129686519504 123.00038664415479,62.04013687139377 123.93654040247202,67.44014717219397 123.93654040247202,69.60014977445826 123.93654040247202,73.38015224086121 124.40461728349328,76.62015224155039 124.40461728349328,82.56014717044309 124.40461728349328,85.26014269841835 124.40461728349328,88.50013554049656 123.93654040247202,91.74012643145397 123.93654040247202,93.90011927718297 124.8726941626519,100.38009260082617 129.55346296168864,108.48004827974364 131.89384736306965,110.64003440085799 137.97884680330753,113.88001195527613 144.53192312084138,114.42000802373514 150.61692255921662,113.34001583140343 158.10615263693035,107.94005161430687 161.38269079849124,102.54008197505027 161.85076767764986,98.22010236000642 162.31884455680847,95.52011333918199 162.78692143782973,92.82012296328321 163.72307519987226,86.88013936532661 163.254998318851,83.10014638630673 162.78692143782973,79.86015028972179 162.31884455680847,77.70015180576593 162.31884455680847,75.00015248451382 161.38269079849124,69.06014920584857 161.85076767764986,66.90014638658613 161.85076767764986,64.74014269933105 161.85076767764986,61.50013554375619 161.85076767764986,58.80012808833271 161.38269079849124,50.70009759161621 160.91461391933262,46.9200791856274 158.10615263693035,40.980044891126454 155.76576823741198,38.820030794944614 149.68076879903674,36.12001195596531 147.34038439951837,35.58000802388415 140.31923120096326,35.040004038251936 137.51076992228627,35.040004038251936 129.55346296168864,38.280027135740966 124.40461728349328,42.600054894108325 122.53230976313353,48.54008739767596 123.00038664415479,53.94011125341058 123.93654040247202,57.720124726649374 123.93654040247202,60.96013416023925 123.93654040247202,63.660140530671924 123.93654040247202,70.14015028905123 123.46846352517605,73.38015224086121 123.46846352517605,75.54015245800838 123.93654040247202,78.78015115577728 123.46846352517605,84.72014370094985 123.46846352517605,88.50013554049656 123.46846352517605,91.74012643145397 123.93654040247202,94.98011537175626 124.8726941626519,100.92009002668783 128.14923232235014,106.32006129110232 130.0215398427099,108.48004827974364 131.89384736306965,110.10003795102239 137.51076992228627,113.34001583140343 139.851154319942,113.88001195527613 146.87230752035975,113.88001195527613 152.95730696059763,111.18003079481423 158.5742295179516,106.32006129110232 159.97846015915275,104.16007343726233 162.31884455680847,98.76010000286624 162.78692143782973,96.06011125259101 163.254998318851,89.04013415891677 163.254998318851,86.88013936532661 163.254998318851,83.10014638630673 163.254998318851,79.86015028972179 162.78692143782973,74.46015245793387 162.78692143782973,71.22015115665272 162.78692143782973,69.06014920584857 162.78692143782973,66.90014638658613 162.78692143782973,63.660140530671924 162.31884455680847,56.10011927643791 161.85076767764986,53.94011125341058 162.31884455680847,50.16009512450546 160.91461391933262,44.76006747316569 158.10615263693035,39.90003795269877 152.95730696059763,36.12001195596531 139.38307744264603,34.5 132.83000112138689,37.740023421123624 127.21307856403291,44.76006747316569 123.93654040247202,52.86010691616684 123.93654040247202,56.640121147502214 123.46846352517605,60.420132723171264 123.93654040247202,68.52014858229086 123.93654040247202,73.92015237733722 123.93654040247202,78.24015150917694 123.46846352517605,85.26014269841835 123.93654040247202,89.04013415891677 123.46846352517605,93.90011927718297 127.21307856403291,105.24006747175008 142.19153872318566,113.88001195527613 154.82961447909474,109.56004144670442 160.446537040174,103.0800791834481 162.31884455680847,98.22010236000642 163.72307519987226,90.6601296858862 166.06345959752798,83.10014638630673 167.93576711788774,80.40014977287501 168.8719208780676,78.78015115577728 169.33999775722623,78.24015150917694" stroke="#4dd2ff" stroke-linecap="round" stroke-linejoin="round" stroke-width="0.5"><title>2017-10-17 5.1km</title></polyline><polyline fill="none" points="75.1243234463036,219.06703515769914 73.7827018816024,214.93964019883424 73.33549469336867,210.81224192632362 72.88828750513494,207.71669104509056 71.99387313053012,200.49373173853382 69.75783719308674,194.30261568026617 61.26090062595904,187.0796375181526 50.97513530962169,186.0477826660499 46.95027062110603,186.56371011864394 38.90054124034941,193.2707622796297 35.77009093016386,199.46187958028167 35.32288374006748,202.0415095887147 34.87567655183375,206.16891490574926 34.42846936546266,208.74854154651985 33.08684780076146,214.93964019883424 33.534054988995194,218.03518672892824 33.98126217722893,221.6466553225182 33.98126217722893,224.74219781160355 34.42846936546266,235.06065930705518 34.87567655183375,241.7676481679082 34.87567655183375,244.3472569361329 35.32288374006748,247.4427857506089 36.664505302906036,252.60199629701674 39.79495561681688,256.72936100512743 41.583784367889166,257.7612016624771 43.81982030719519,259.82488235924393 48.29189218394458,261.88856222713366 51.86954968422651,262.4044820647687 55.89441437460482,262.4044820647687 62.155315002426505,261.88856222713366 70.20504437945783,256.72936100512743 72.88828750513494,250.53831270011142 74.22990906983614,243.31541358539835 74.22990906983614,239.7039602198638 73.33549469336867,231.44920013891533 72.88828750513494,228.86958489520475 73.33549469336867,222.67850302625448 73.33549469336867,218.55111096985638 72.88828750513494,215.45556475035846 72.88828750513494,207.20076571637765 72.4410803169012,203.58928696950898 70.65225156582892,196.88224827870727 67.07459406554699,190.69112786836922 65.2857653144747,189.14334660070017 51.42234249599278,186.0477826660499 44.71423468180001,188.62741940887645 41.583784367889166,190.69112786836922 37.55891967751086,195.85039539495483 36.2172981146723,198.94595342455432 34.42846936546266,206.68484033783898 33.534054988995194,213.90779094118625 33.98126217722893,216.48741369741037 34.42846936546266,220.0988833787851 34.87567655183375,222.67850302625448 34.42846936546266,229.9014311498031 34.87567655183375,232.99696866655722 34.87567655183375,236.60842674551532 34.87567655183375,242.79949183156714 35.32288374006748,245.8950215773657 35.32288374006748,248.99054945912212 36.664505302906036,254.6656790645793 41.13657717779279,259.82488235924393 43.37261311709881,261.3726423373446 50.080720933154225,264.4681608956307 56.341621559113264,264.4681608956307 59.02486468851566,263.95224126568064 67.07459406554699,259.82488235924393 70.20504437945783,254.6656790645793 72.4410803169012,249.5064705903642 73.33549469336867,245.37910008244216 73.33549469336867,240.2198822842911 73.33549469336867,237.1243491191417 73.33549469336867,234.54473672388121 72.88828750513494,231.9651230336167 72.88828750513494,225.774044893682 72.88828750513494,222.1625792006962 73.33549469336867,214.42371559655294 73.33549469336867,211.84409180516377 72.88828750513494,205.65298942336813 71.99387313053012,201.52558369049802 68.86342281475663,192.23890867084265 67.07459406554699,190.1752008316107 60.81369343586266,186.56371011864394 58.1304503120482,186.0477826660499 46.05585624463856,187.0796375181526 42.92540593072772,189.14334660070017 38.45333405584097,193.78668900579214 36.2172981146723,196.3663218622096 33.534054988995194,207.20076571637765 33.534054988995194,210.81224192632362 33.98126217722893,213.90779094118625 34.42846936546266,220.0988833787851 34.42846936546266,222.67850302625448 34.42846936546266,225.774044893682 34.87567655183375,229.3855080488138 34.87567655183375,234.54473672388121 34.87567655183375,238.15619371412322 34.42846936546266,240.73580429702997 33.98126217722893,244.3472569361329 34.42846936546266,250.0223916717805 35.32288374006748,253.11791706830263 44.71423468180001,263.43632158311084 46.50306343100965,263.95224126568064 52.316756872460246,265.5 59.02486468851566,264.4681608956307 63.049729377031326,262.4044820647687 69.75783719308674,258.27712191361934 73.7827018816024,251.57015460217372 74.67711625620723,248.474628274329 75.57153063081205,241.25172625714913 75.1243234463036,237.64027144340798 75.57153063081205,235.06065930705518 75.57153063081205,231.44920013891533 75.1243234463036,221.6466553225182 74.67711625620723,218.03518672892824 74.22990906983614,214.93964019883424 73.7827018816024,211.84409180516377 72.88828750513494,204.62113829981536 72.4410803169012,200.49373173853382 69.75783719308674,193.78668900579214 65.2857653144747,188.62741940887645 60.36648624949157,186.0477826660499 53.658378437161446,185.0159276081249 49.63351374678314,186.56371011864394 46.50306343100965,187.0796375181526 41.13657717779279,189.65927374130115 36.2172981146723,194.81854230351746 34.42846936546266,199.46187958028167 33.534054988995194,208.74854154651985 33.534054988995194,211.32816689135507 33.534054988995194,213.90779094118625 33.98126217722893,218.03518672892824 34.42846936546266,224.74219781160355 33.98126217722893,227.83773843478411 33.534054988995194,231.44920013891533 33.98126217722893,241.7676481679082 34.42846936546266,245.37910008244216 34.42846936546266,247.95870703924447 35.32288374006748,252.60199629701674 36.664505302906036,254.6656790645793 42.030991554260254,259.82488235924393 47.84468499571085,263.43632158311084 58.1304503120482,262.92040184978396 60.81369343586266,261.88856222713366 66.62738687731326,258.79304211447015 71.99387313053012,255.18159962724894 75.1243234463036,248.474628274329 74.67711625620723,241.7676481679082 74.67711625620723,238.6721159350127 74.22990906983614,234.54473672388121 75.1243234463036,229.3855080488138 74.22990906983614,222.1625792006962 73.33549469336867,218.03518672892824 72.4410803169012,214.42371559655294 71.54666594229639,207.71669104509056 71.54666594229639,205.13706388743594 70.65225156582892,198.94595342455432 67.52180125378072,192.23890867084265 63.049729377031326,188.62741940887645 55.89441437460482,186.0477826660499 49.186306558549404,186.56371011864394 43.37261311709881,189.65927374130115 40.24216280505061,191.72298178914934 36.664505302906036,196.88224827870727 34.87567655183375,203.58928696950898 32.192433424293995,212.3600166682154 32.192433424293995,216.48741369741037 32.192433424293995,220.0988833787851 30.850811863318086,228.35366169176996 30.403604676946998,230.41735419724137 31.298019049689174,237.64027144340798 31.298019049689174,239.7039602198638 31.298019049689174,242.2835700251162 31.745226239785552,244.86317853536457 31.745226239785552,247.95870703924447 33.98126217722893,254.6656790645793 38.45333405584097,259.82488235924393 41.583784367889166,261.3726423373446 44.71423468180001,263.43632158311084 49.63351374678314,265.5 53.21117124706507,265.5 56.78882874920964,265.5 62.155315002426505,264.4681608956307 70.20504437945783,254.6656790645793 73.33549469336867,248.99054945912212 73.7827018816024,246.41094302060083 74.67711625620723,240.2198822842911 75.1243234463036,237.1243491191417 75.1243234463036,233.51289140386507 74.22990906983614,227.3218151279725 72.4410803169012,219.06703515769914 72.4410803169012,215.97148925019428 72.4410803169012,211.84409180516377 71.54666594229639,206.16891490574926 71.0994587559253,203.07336122822016 70.65225156582892,199.97780568525195 65.2857653144747,190.69112786836922 59.919279063120484,187.0796375181526 54.10558562166989,186.56371011864394 51.86954968422651,186.56371011864394 49.186306558549404,186.56371011864394 44.267027493566275,188.62741940887645 42.030991554260254,190.1752008316107 38.90054124034941,191.72298178914934 33.534054988995194,195.85039539495483 31.745226239785552,200.49373173853382 31.298019049689174,207.71669104509056 31.298019049689174,210.2963169082068 31.298019049689174,215.45556475035846 32.192433424293995,223.19442680105567 32.192433424293995,227.3218151279725 32.192433424293995,231.44920013891533 32.192433424293995,238.6721159350127 31.745226239785552,241.7676481679082 31.745226239785552,245.37910008244216 33.534054988995194,252.60199629701674 35.32288374006748,256.21344059705734 44.267027493566275,263.95224126568064 46.50306343100965,264.98408047296107 54.55279281176627,265.5 61.70810781233013,264.4681608956307 70.20504437945783,258.79304211447015 71.99387313053012,255.6975201391615 72.88828750513494,253.11791706830263 74.67711625620723,247.4427857506089 74.67711625620723,244.3472569361329 74.67711625620723,241.25172625714913 75.1243234463036,238.15619371412322 74.67711625620723,231.9651230336167 74.67711625620723,228.35366169176996 73.33549469336867,222.1625792006962 72.4410803169012,214.93964019883424 71.99387313053012,211.84409180516377 71.99387313053012,207.71669104509056 71.99387313053012,205.13706388743594 71.0994587559253,199.46187958028167 68.41621562838554,192.23890867084265 63.94414375163615,188.11149216489866 57.68324312567711,185.53185516316444 51.42234249599278,186.0477826660499 48.29189218394458,187.0796375181526 42.92540593072772,189.65927374130115 40.6893699914217,192.7548355003819 36.664505302906036,198.43002721620724 35.77009093016386,208.23261632071808 35.77009093016386,211.84409180516377 35.77009093016386,214.42371559655294 36.2172981146723,217.0033380924724 37.11171249113977,223.19442680105567 38.006126867607236,229.9014311498031 37.55891967751086,234.02881408995017 37.55891967751086,236.60842674551532 37.11171249113977,240.2198822842911 37.11171249113977,246.9268644116819 37.55891967751086,250.53831270011142 39.34774843044579,255.18159962724894 44.71423468180001,259.82488235924393 50.080720933154225,261.3726423373446 57.23603593558073,261.88856222713366 63.49693656526506,259.82488235924393 66.62738687731326,257.24528135964647 69.31063000299037,253.6338377846405 70.65225156582892,250.0223916717805 72.4410803169012,243.83133528660983 72.88828750513494,240.73580429702997 72.88828750513494,237.1243491191417 72.4410803169012,228.86958489520475 71.99387313053012,225.25812137778848 71.99387313053012,221.6466553225182 71.99387313053012,213.39186623506248 71.99387313053012,210.81224192632362 71.54666594229639,204.1052126614377 71.0994587559253,201.00965773966163 70.65225156582892,198.43002721620724 68.41621562838554,192.7548355003819 66.62738687731326,191.20705485483631 61.70810781233013,187.0796375181526 58.1304503120482,186.0477826660499 55.44720718637109,185.53185516316444 49.186306558549404,185.53185516316444 46.05585624463856,187.0796375181526 40.24216280505061,191.20705485483631 38.45333405584097,193.2707622796297 35.77009093016386,198.43002721620724 34.87567655183375,201.00965773966163 33.534054988995194,205.13706388743594 33.08684780076146,211.84409180516377 33.08684780076146,219.5829592947848 33.08684780076146,222.1625792006962 33.08684780076146,226.28996835788712 33.534054988995194,232.99696866655722 34.42846936546266,240.73580429702997 34.87567655183375,244.3472569361329 34.87567655183375,246.9268644116819 37.11171249113977,253.11791706830263 38.006126867607236,255.18159962724894 41.583784367889166,259.30896226363257 47.39747780561447,262.4044820647687 50.97513530962169,262.92040184978396 56.341621559113264,262.92040184978396 63.49693656526506,260.3408024045639 66.18017969094217,259.30896226363257 70.65225156582892,255.18159962724894 72.88828750513494,250.0223916717805 74.22990906983614,246.41094302060083 74.67711625620723,240.73580429702997 74.22990906983614,237.1243491191417 73.7827018816024,234.02881408995017 73.33549469336867,230.41735419724137 73.33549469336867,223.71035052230582 72.88828750513494,219.5829592947848 72.88828750513494,215.97148925019428 72.4410803169012,207.20076571637765 71.99387313053012,203.58928696950898 70.65225156582892,197.91410095477477 66.62738687731326,191.72298178914934 61.70810781233013,187.0796375181526 58.577657498419285,186.0477826660499 51.86954968422651,184.5 43.81982030719519,187.59556486690417 42.030991554260254,189.65927374130115 38.006126867607236,195.85039539495483 37.11171249113977,198.43002721620724 34.87567655183375,205.65298942336813 34.42846936546266,208.23261632071808 34.42846936546266,211.84409180516377 33.98126217722893,214.42371559655294 34.87567655183375,222.1625792006962 35.32288374006748,224.74219781160355 35.32288374006748,231.44920013891533 35.32288374006748,235.57658183714375 35.77009093016386,239.7039602198638 35.77009093016386,246.41094302060083 36.2172981146723,251.57015460217372 39.34774843044579,256.72936100512743 46.05585624463856,261.3726423373446 53.21117124706507,262.92040184978396 62.60252218693495,259.82488235924393 65.73297250270844,257.24528135964647 68.86342281475663,254.6656790645793 72.88828750513494,245.37910008244216 72.4410803169012,242.2835700251162 72.88828750513494,238.6721159350127 71.99387313053012,232.481045874767 71.99387313053012,228.86958489520475 71.99387313053012,225.25812137778848 71.54666594229639,218.03518672892824 71.54666594229639,214.93964019883424 72.4410803169012,205.65298942336813 71.99387313053012,202.0415095887147 69.75783719308674,195.33446887601167 65.2857653144747,190.1752008316107 59.02486468851566,186.56371011864394 53.658378437161446,185.0159276081249 40.6893699914217,192.23890867084265 38.45333405584097,194.81854230351746 36.664505302906036,200.49373173853382 36.664505302906036,205.13706388743594 36.664505302906036,209.7803918402642 36.2172981146723,217.0033380924724 35.77009093016386,221.6466553225182 35.77009093016386,226.28996835788712 35.77009093016386,233.51289140386507 35.77009093016386,237.64027144340798 35.32288374006748,241.25172625714913 35.77009093016386,250.53831270011142 46.05585624463856,262.92040184978396 52.763964058831334,263.95224126568064 56.78882874920964,263.43632158311084 68.41621562838554,257.24528135964647 71.99387313053012,250.0223916717805 73.7827018816024,232.99696866655722 73.33549469336867,229.9014311498031 72.88828750513494,225.774044893682 71.99387313053012,211.84409180516377 72.4410803169012,208.23261632071808 71.99387313053012,198.43002721620724 63.49693656526506,188.62741940887645 42.030991554260254,190.69112786836922 37.11171249113977,197.91410095477477 35.32288374006748,209.2644667197019 35.32288374006748,213.90779094118625 35.32288374006748,224.2262741937302 35.32288374006748,228.86958489520475 34.87567655183375,232.99696866655722 35.32288374006748,242.2835700251162 38.90054124034941,256.21344059705734 57.68324312567711,262.4044820647687 71.54666594229639,255.6975201391615 75.57153063081205,242.2835700251162 79.14918813295662,230.93327719485387 79.14918813295662,230.93327719485387 79.59639532119036,231.44920013891533 79.59639532119036,230.41735419724137 79.14918813295662,230.41735419724137 79.14918813295662,230.41735419724137 79.14918813295662,230.41735419724137 78.25477375648916,225.25812137778848" stroke="#4dd2ff" stroke-linecap="round" stroke-linejoin="round" stroke-width="0.5"><title>2017-10-27 4.8km</title></polyline></svg>